<?xml version="1.0" encoding="utf-8"?>
<!-- Generator: Adobe Illustrator 25.3.1, SVG Export Plug-In . SVG Version: 6.00 Build 0)  -->
<svg version="1.1" id="Layer_1" xmlns="http://www.w3.org/2000/svg" xmlns:xlink="http://www.w3.org/1999/xlink" x="0px" y="0px"
	 viewBox="0 0 1920 400" style="enable-background:new 0 0 1920 400;" xml:space="preserve">
<style type="text/css">
	.st0{fill:#52A3FF;fill-opacity:0.53;}
	.st1{fill:#4E9BFF;fill-opacity:0.53;}
	.st2{fill:#448CFF;fill-opacity:0.53;}
	.st3{fill:#377DFF;fill-opacity:0.53;}
</style>
<g id="Layer_3">
	<g>
		<path class="st0" d="M1270,468c274,57,415.7,19.9,648.4-23.5V0H-1.4L0,329c75-105,247-118,338-116c96.8,2.2,265,67,339,92
			S996,411,1270,468z"/>
		<path class="st0" d="M1918,400l0.4-400H-1.4L0,400H1918z"/>
		<path class="st1" d="M1229,293c148,17,442.5,20.2,689.5-22.4V0.1l0,0H-1.4L0,181C64,110,212,67,332,72
			c129.9,5.4,222.8,56.9,416,119C944,254,1081,276,1229,293z"/>
		<path class="st2" d="M1918.5,0.1L621,0c141.7,56.2,381.1,112.1,553,146c230.1,45.4,366.3,44.6,600.3,9.5
			c49-7.4,97.3-16.5,144.4-27.3V0.1H1918.5z"/>
		<path class="st3" d="M1605,91c254-16,350.6-63.4,432-91L969.5,0.1C1158.7,55.5,1351,107,1605,91z"/>
	</g>
</g>
</svg>
