<?xml version="1.0" encoding="utf-8"?>
<!-- Generator: Adobe Illustrator 25.2.3, SVG Export Plug-In . SVG Version: 6.00 Build 0)  -->
<svg version="1.1" id="Layer_1" xmlns="http://www.w3.org/2000/svg" xmlns:xlink="http://www.w3.org/1999/xlink" x="0px" y="0px"
	 viewBox="0 0 156.8 160" style="enable-background:new 0 0 156.8 160;" xml:space="preserve">
<style type="text/css">
	.st0{fill:url(#SVGID_1_);}
	.st1{fill:url(#SVGID_2_);}
	.st2{fill:#FFFFFF;}
</style>
<radialGradient id="SVGID_1_" cx="10.4794" cy="7.0597" r="198.0444" gradientTransform="matrix(1.0001 0 0 -1.0001 1.578283e-02 162.03)" gradientUnits="userSpaceOnUse">
	<stop  offset="9.000000e-02" style="stop-color:#FA8F21"/>
	<stop  offset="0.78" style="stop-color:#D82D7E"/>
</radialGradient>
<path class="st0" d="M40,157.8c-9.3-0.4-14.3-2-17.7-3.3c-4.4-1.7-7.6-3.8-10.9-7.1s-5.4-6.5-7.1-10.9c-1.3-3.4-2.9-8.4-3.3-17.7
	c-0.5-10-0.6-13-0.6-38.4S0.5,52,1,41.9c0.4-9.3,2-14.3,3.3-17.7C6,19.8,8,16.7,11.3,13.3c3.3-3.3,6.5-5.4,10.9-7.1
	c3.4-1.3,8.4-2.9,17.7-3.3c10-0.5,13-0.6,38.4-0.6c25.4,0,28.4,0.1,38.4,0.6c9.3,0.4,14.3,2,17.7,3.3c4.4,1.7,7.6,3.8,10.9,7.1
	c3.3,3.3,5.4,6.5,7.1,10.9c1.3,3.4,2.9,8.4,3.3,17.7c0.5,10,0.6,13,0.6,38.4c0,25.4-0.1,28.4-0.6,38.4c-0.4,9.3-2,14.3-3.3,17.7
	c-1.7,4.4-3.8,7.6-7.1,10.9s-6.5,5.4-10.9,7.1c-3.4,1.3-8.4,2.9-17.7,3.3c-10,0.5-13,0.6-38.4,0.6C53,158.4,50,158.3,40,157.8"/>
<radialGradient id="SVGID_2_" cx="108.4303" cy="12.0684" r="174.281" gradientTransform="matrix(1.0001 0 0 -1.0001 1.578283e-02 162.03)" gradientUnits="userSpaceOnUse">
	<stop  offset="0.64" style="stop-color:#8C3AAA;stop-opacity:0"/>
	<stop  offset="1" style="stop-color:#8C3AAA"/>
</radialGradient>
<path class="st1" d="M40,157.8c-9.3-0.4-14.3-2-17.7-3.3c-4.4-1.7-7.6-3.8-10.9-7.1s-5.4-6.5-7.1-10.9c-1.3-3.4-2.9-8.4-3.3-17.7
	c-0.5-10-0.6-13-0.6-38.4S0.5,52,1,41.9c0.4-9.3,2-14.3,3.3-17.7C6,19.8,8,16.7,11.3,13.3c3.3-3.3,6.5-5.4,10.9-7.1
	c3.4-1.3,8.4-2.9,17.7-3.3c10-0.5,13-0.6,38.4-0.6c25.4,0,28.4,0.1,38.4,0.6c9.3,0.4,14.3,2,17.7,3.3c4.4,1.7,7.6,3.8,10.9,7.1
	c3.3,3.3,5.4,6.5,7.1,10.9c1.3,3.4,2.9,8.4,3.3,17.7c0.5,10,0.6,13,0.6,38.4c0,25.4-0.1,28.4-0.6,38.4c-0.4,9.3-2,14.3-3.3,17.7
	c-1.7,4.4-3.8,7.6-7.1,10.9s-6.5,5.4-10.9,7.1c-3.4,1.3-8.4,2.9-17.7,3.3c-10,0.5-13,0.6-38.4,0.6C53,158.4,50,158.3,40,157.8"/>
<path class="st2" d="M59.2,80.7c0-10.7,8.6-19.3,19.3-19.3s19.3,8.7,19.3,19.3S89.2,100,78.6,100S59.2,91.4,59.2,80.7 M48.8,80.7
	c0,16.4,13.3,29.8,29.8,29.8s29.8-13.3,29.8-29.8S95,51,78.6,51S48.8,64.3,48.8,80.7 M102.5,49.8c0,3.8,3.1,7,7,7c3.8,0,7-3.1,7-7
	c0-3.8-3.1-7-7-7h0C105.7,42.8,102.5,45.9,102.5,49.8 M55.1,127.9c-5.7-0.3-8.7-1.2-10.8-2c-2.7-1.1-4.6-2.3-6.7-4.3
	c-2-2-3.3-4-4.3-6.7c-0.8-2-1.7-5.1-2-10.8c-0.3-6.1-0.3-7.9-0.3-23.4s0.1-17.3,0.3-23.4c0.3-5.7,1.2-8.7,2-10.8
	c1.1-2.7,2.3-4.6,4.3-6.7c2-2,4-3.3,6.7-4.3c2-0.8,5.1-1.7,10.8-2c6.1-0.3,7.9-0.3,23.4-0.3s17.3,0.1,23.4,0.3
	c5.7,0.3,8.7,1.2,10.8,2c2.7,1,4.6,2.3,6.7,4.3c2,2,3.3,4,4.3,6.7c0.8,2,1.7,5.1,2,10.8c0.3,6.1,0.3,7.9,0.3,23.4
	s-0.1,17.3-0.3,23.4c-0.3,5.7-1.2,8.7-2,10.8c-1.1,2.7-2.3,4.6-4.3,6.7c-2,2-4,3.3-6.7,4.3c-2,0.8-5.1,1.7-10.8,2
	c-6.1,0.3-7.9,0.3-23.4,0.3S61.3,128.2,55.1,127.9 M54.7,23.1c-6.2,0.3-10.4,1.3-14.1,2.7c-3.8,1.5-7,3.5-10.3,6.7
	s-5.2,6.5-6.7,10.3c-1.4,3.7-2.4,7.9-2.7,14.1c-0.3,6.2-0.4,8.2-0.4,23.9s0.1,17.7,0.4,23.9c0.3,6.2,1.3,10.4,2.7,14.1
	c1.5,3.8,3.5,7,6.7,10.3s6.5,5.2,10.3,6.7c3.7,1.4,7.9,2.4,14.1,2.7c6.2,0.3,8.2,0.4,23.9,0.4s17.7-0.1,23.9-0.4
	c6.2-0.3,10.4-1.3,14.1-2.7c3.8-1.5,7-3.5,10.3-6.7c3.2-3.2,5.2-6.5,6.7-10.3c1.4-3.7,2.4-7.9,2.7-14.1c0.3-6.2,0.3-8.2,0.3-23.9
	s-0.1-17.7-0.3-23.9c-0.3-6.2-1.3-10.4-2.7-14.1c-1.5-3.8-3.5-7-6.7-10.3s-6.5-5.2-10.3-6.7c-3.7-1.4-7.9-2.4-14.1-2.7
	c-6.2-0.3-8.2-0.4-23.9-0.4S60.9,22.8,54.7,23.1"/>
</svg>
