<?xml version="1.0" encoding="utf-8"?>
<!-- Generator: Adobe Illustrator 25.2.3, SVG Export Plug-In . SVG Version: 6.00 Build 0)  -->
<svg version="1.1" id="Layer_1" xmlns="http://www.w3.org/2000/svg" xmlns:xlink="http://www.w3.org/1999/xlink" x="0px" y="0px"
	 viewBox="0 0 156.8 160" style="enable-background:new 0 0 156.8 160;" xml:space="preserve">
<style type="text/css">
	.st0{fill:url(#SVGID_1_);}
</style>
<linearGradient id="SVGID_1_" gradientUnits="userSpaceOnUse" x1="-1185.9376" y1="-935.2373" x2="-1164.0544" y2="-957.1204" gradientTransform="matrix(5.0206 0 0 -5.0206 5977.2417 -4670.6748)">
	<stop  offset="0" style="stop-color:#2489BE"/>
	<stop  offset="1" style="stop-color:#0575B3"/>
</linearGradient>
<path class="st0" d="M78.1,2C35.2,2,0.4,36.8,0.4,79.7s34.8,77.7,77.7,77.7s77.7-34.8,77.7-77.7C155.8,36.8,121,2,78.1,2z
	 M57.4,117.2H40.3V62.1h17.1V117.2z M48.8,54.9c-5.6,0-10.1-4.6-10.1-10.2c0-5.6,4.5-10.2,10.1-10.2s10.1,4.6,10.1,10.2
	C58.8,50.4,54.3,54.9,48.8,54.9z M121.3,117.2h-17V88.3c0-7.9-3-12.4-9.3-12.4c-6.8,0-10.4,4.6-10.4,12.4v28.9H68.3V62.1h16.4v7.4
	c0,0,4.9-9.1,16.6-9.1c11.7,0,20,7.1,20,21.9L121.3,117.2L121.3,117.2z"/>
</svg>
