<?xml version="1.0" encoding="utf-8"?>
<!-- Generator: Adobe Illustrator 25.2.3, SVG Export Plug-In . SVG Version: 6.00 Build 0)  -->
<svg version="1.1" xmlns="http://www.w3.org/2000/svg" xmlns:xlink="http://www.w3.org/1999/xlink" x="0px" y="0px"
	 viewBox="0 0 1920 698" style="enable-background:new 0 0 1920 698;" xml:space="preserve">
<style type="text/css">
	.st0{fill:#52A3FF;fill-opacity:0.53;}
	.st1{fill:#4E9BFF;fill-opacity:0.53;}
	.st2{fill:#448CFF;fill-opacity:0.53;}
	.st3{fill:#377DFF;fill-opacity:0.53;}
	.st4{display:none;}
	.st5{display:inline;fill:#E5E5E5;}
	.st6{display:inline;}
	.st7{clip-path:url(#SVGID_2_);fill:#377DFF;}
	.st8{fill:#D9DEEA;}
	.st9{fill:#C0CBDD;}
	.st10{fill:#8192B0;}
</style>
<g id="Layer_3">
	<g>
		<path class="st0" d="M218.1,226.3c117.8,5.2,230.3,30.7,337.5,62.9c3.4,1,6.6,2,10,3c205.2,62.5,411.2,138.3,637.5,181.2
			c238.5,45.2,484,35.6,716.7-12.9V0H0v247.1C70.8,230,144.7,223.1,218.1,226.3z"/>
		<path class="st1" d="M1919.9,0H0v118.9c74.8-18.2,153.2-24,230.6-16.8c112.3,10.6,216.6,41.6,315.9,78.2c3.1,1.1,6.1,2.3,9.2,3.4
			c190.1,70.8,383.6,149.1,600.3,194.7c252.6,53.2,516.9,42.8,763.9-14.5V0H1919.9z"/>
		<path class="st2" d="M1919.9,0H597.6c141.7,74.9,292.2,143.5,464.1,188.6c230.1,60.4,480,65.2,714,18.4c49-9.8,97.3-22,144.4-36.4
			V0H1919.9z"/>
		<path class="st3" d="M1578.3,63.2c90.4-11,178.7-32.4,260.1-63.2H970.9C1160.1,61.9,1373.6,88.1,1578.3,63.2z"/>
	</g>
</g>
<g id="Layer_1" class="st4">
	<rect class="st5" width="1920" height="698"/>
	<g class="st6">
		<defs>
			<rect id="SVGID_1_" width="1920" height="698"/>
		</defs>
		<clipPath id="SVGID_2_">
			<use xlink:href="#SVGID_1_"  style="overflow:visible;"/>
		</clipPath>
		<path class="st7" d="M684.1-585.3H308.3c-244.7,0-422.8,124.4-422.8,369.1C-115.1,4.9,46.2,139.7,258,172.6
			C290.9,385,438,448.6,659.1,448.6c83.4,0,163.5-23,232.6-65.8c106.9,179.9,394.2,233.3,607.6,207
			c224.3-27.5,490.8-157.6,490.8-481l0,0c209.6-35.7,278.3-188.1,278.3-407.6c0-244.7-184.4-287-334.6-287h-375.8L684.1-585.3z"/>
	</g>
</g>
<g id="Layer_2" class="st4">
	<g class="st6">
		<path class="st8" d="M1958.6-1704.8H38.6V422h1920V-1704.8z"/>
		<path class="st9" d="M1337.5-6479.2L2657.1,309.6l-915.7,542c-51.2-151.5-133.2-276.8-222.9-361.6c-141.8-134-303-187.9-459-258.8
			c-87.9-39.6-188.9-110.1-209-264.5c-12.9-98.6,12.9-198.1,25.3-296.8c32.6-260.2-38.5-550-168.9-688.4
			c-32.4-34.4-69.2-62.3-90.9-116.6c-67-167.5,61.9-381.8,49.6-585.1c-4.4-73.5-27.4-139.3-52.4-198.9
			C339-2576.3-170.8-2740-590.2-3094c-122.4-103.5-242.3-230.5-326.2-417.2c-83.9-186.9-126.4-443.8-81.1-667.5
			c62-305.9,259.6-456,442.4-515.5c182.8-59.5,378.1-67.7,537.7-234c173.6-181,272-513.5,407-776
			c67.6-131.4,144.6-245.2,226.8-348.1L1337.5-6479.2z"/>
		<path class="st10" d="M1771.8-7290.4L3091.6-502.9l-915.8,542c-51.2-151.5-133.2-276.6-222.9-361.4
			c-141.8-134-303-187.9-459.1-258.6c-87.9-39.8-188.9-110.1-209-264.5c-12.8-98.6,13-198.1,25.3-296.8
			c32.6-260.2-38.5-549.8-168.9-688.4c-32.4-34.4-69.2-62.3-90.9-116.6c-67-167.5,61.9-381.8,49.6-584.9
			c-4.4-73.5-27.5-139.2-52.4-198.9c-274.1-657-784-820.7-1203.4-1174.7c-122.4-103.5-242.3-230.3-326.2-417.2
			c-83.9-186.7-126.4-443.6-81.1-667.3c62-305.7,259.6-456,442.4-515.5c182.8-59.5,378.1-67.7,537.7-234
			c173.5-180.8,271.9-513.4,406.9-775.6c67.6-131.4,144.6-245.2,226.8-348.1L1771.8-7290.4z"/>
	</g>
</g>
</svg>
