<?xml version="1.0" encoding="utf-8"?>
<!-- Generator: Adobe Illustrator 25.2.1, SVG Export Plug-In . SVG Version: 6.00 Build 0)  -->
<svg version="1.1" xmlns="http://www.w3.org/2000/svg" xmlns:xlink="http://www.w3.org/1999/xlink" x="0px" y="0px"
	 viewBox="0 0 332.2 214" style="enable-background:new 0 0 332.2 214;" xml:space="preserve">
<style type="text/css">
	.st0{fill:none;stroke:#132144;stroke-width:7;stroke-linecap:round;stroke-linejoin:round;}
	.st1{fill:#377DFF;stroke:#377DFF;stroke-width:7;stroke-linecap:round;stroke-linejoin:round;}
	.st2{fill:#FFFFFF;stroke:#132144;stroke-width:7;stroke-linecap:round;stroke-linejoin:round;}
</style>
<g id="ICONS">
	<path class="st0" d="M227.1,14.8c-5.8-7.5-35.2-4-44.7-4.4c-48.3,2.5-61.2,1.5-102,2.3c-12.3-0.6-22.8,8.8-23.5,21.1
		c2.3,56.5,3.7,78.2,6.7,149.2c1.8,23.1,16.8,19.3,41.5,16.9"/>
	<path class="st1" d="M219.2,9c11.8-1.5,22.8,8.5,23.6,20.7c3.6,53.7,5.1,129.7,6.5,148.6c1.6,21.5-15.8,22.6-32.1,23
		c-45.6,2.1-43.3,3.6-91.5,4.4c-8.8-0.6-17.7-0.2-22.2-7.8c-2.3-3.8-3.8-10.3-4-14.7c-1.2-24.3-8-98.5-10.8-134.1
		c-1.3-17.8,10-29.7,27.8-31L219.2,9z"/>
	<path class="st2" d="M278.4,170.1c13.1,13.8,26.5,27.3,40.1,40.5"/>
	<path class="st2" d="M275.8,73.9l7.7-18"/>
	<path class="st2" d="M305.5,92.3l14.8-9.9"/>
	<path class="st2" d="M316.2,127.1l12.6-0.1"/>
	<path class="st0" d="M115.3,61.6c14.4-10.4,32.6-11.7,47.8-3.4c2.9,1.6,5.7,3.5,8.8,4.7c3.3,1.3,6.8,1.5,10.3,1.4
		c13-0.4,25.8-6.5,35.9-16.9"/>
	<path class="st0" d="M117.1,95.7c8.3-5.3,18-5.6,27.3-4.2c9.2,1.5,18.2,4.6,27.5,5.8c14.6,2,29.7-0.9,43.2-8.3"/>
	<path class="st0" d="M128.2,176.5c5.2-7.5,14-9,21.8-7.8c7.8,1.2,15.3,4.5,23.2,4.9c5,0.2,10-0.8,15-1.8c13-2.7,25.9-5.3,38.9-8"/>
	<path class="st0" d="M123,136.3c15.7,2.5,31.2-4.4,46.9-6c4.9-0.5,9.9-0.5,14.9-0.4c10.2,0.1,20.4,0.3,30.7,0.6"/>
	<path class="st2" d="M222.6,171.5c-8.2-6.2-14.6-21.1-13.5-35.5c1-12.3,12.6-28.7,24.7-32.3c7.6-2.3,16.5-4.1,24.4-3.6
		c12,0.7,19.5,7.6,25.2,17.8c8.7,15.7,9.2,34.5-3.1,48.6c-8.5,9.6-17.6,12.9-30.3,14.3C243.9,181.4,230.9,177.8,222.6,171.5z"/>
	<path class="st2" d="M223.7,133.1c2.3-7.4,7.6-13.6,14.6-17"/>
	<path class="st2" d="M248.7,113.1l2.8-1"/>
</g>
<g id="Layer_2">
</g>
<g id="Layer_3">
</g>
</svg>
