<?xml version="1.0" encoding="utf-8"?>
<!-- Generator: Adobe Illustrator 25.2.1, SVG Export Plug-In . SVG Version: 6.00 Build 0)  -->
<svg version="1.1" id="Layer_1" xmlns="http://www.w3.org/2000/svg" xmlns:xlink="http://www.w3.org/1999/xlink" x="0px" y="0px"
	 viewBox="0 0 332.2 214" style="enable-background:new 0 0 332.2 214;" xml:space="preserve">
<style type="text/css">
	.st0{fill:none;stroke:#132144;stroke-width:7;stroke-linecap:round;stroke-linejoin:round;}
	.st1{fill:#377DFF;stroke:#377DFF;stroke-width:7;stroke-linecap:round;stroke-linejoin:round;}
	.st2{fill:#FFFFFF;stroke:#132144;stroke-width:7;stroke-linecap:round;stroke-linejoin:round;}
	.st3{fill:#132144;}
</style>
<g id="ICONS">
	<path class="st0" d="M213.4,23.3c-5.8-7.5-14.6-12.1-24.1-12.5C144.7,8.9,66.1,5.4,28.1,3.5C15.8,2.9,5.3,12.3,4.6,24.6
		C1.8,78.5,5.2,140.7,4.2,159.5c-1,17.6,18.8,25.1,35,27.4"/>
	<path class="st1" d="M223.2,22.7c12.2-0.8,22.8,8.5,23.6,20.7c3.6,53.7,1.1,116,2.5,134.9c-0.6,18.3-28.4,22.6-44.7,23
		c-46.1,1.2-92.4,6.1-138.5,2.9c-8.8-0.6-19-2.1-23.5-9.7c-2.3-3.8-2.5-8.4-2.7-12.8c-1.2-24.3-5.4-79.1-8.2-114.7
		c-1.3-17.8,12-33.2,29.8-34.5c0.2,0,0.3,0,0.5,0C106.6,29.8,185.1,25.2,223.2,22.7z"/>
	<path class="st2" d="M222.6,171.5c-8.2-6.2-14.6-21.1-13.5-35.5c1-12.3,12.6-28.7,24.7-32.3c7.6-2.3,16.5-4.1,24.4-3.6
		c12,0.7,19.5,7.6,25.2,17.8c8.7,15.7,9.2,34.5-3.1,48.6c-8.5,9.6-17.6,12.9-30.3,14.3C243.9,181.4,230.9,177.8,222.6,171.5z"/>
	<path class="st2" d="M278.4,170.1c13.1,13.8,26.5,27.3,40.1,40.5"/>
	<path class="st2" d="M223.7,133.1c2.3-7.4,7.6-13.6,14.6-17"/>
	<path class="st2" d="M248.7,113.1l2.8-1"/>
	<path class="st2" d="M275.8,73.9l7.7-18"/>
	<path class="st2" d="M305.5,92.3l14.8-9.9"/>
	<path class="st2" d="M316.2,127.1l12.6-0.1"/>
</g>
<path class="st3" d="M161.5,130c-0.9,1-1.8,1.9-3,2.6v4.3c12.5,1.8,21,5.3,21,9.3c0,5.8-17.5,10.5-39.1,10.5s-39.1-4.7-39.1-10.5
	c0-4.1,8.5-7.6,21-9.3v-4.3c-1.1-0.7-2.1-1.6-3-2.6c-16,2.9-27.1,9.1-27.1,16.2c0,10,21.5,18,48.1,18s48.1-8.1,48.1-18
	C188.6,139,177.5,132.9,161.5,130z M140.5,92c6.6,0,12-5.4,12-12c0-6.6-5.4-12-12-12s-12,5.4-12,12C128.4,86.7,133.8,92,140.5,92z
	 M128.4,128.1v18c0,3.3,2.7,6,6,6h12c3.3,0,6-2.7,6-6v-18c3.3,0,6-2.7,6-6v-18c0-5-4-9-9-9h-2.2c-2.1,0.9-4.4,1.5-6.8,1.5
	c-2.4,0-4.7-0.6-6.8-1.5h-2.2c-5,0-9,4-9,9v18C122.4,125.4,125.1,128.1,128.4,128.1z"/>
</svg>
