<?xml version="1.0" encoding="utf-8"?>
<!-- Generator: Adobe Illustrator 25.2.1, SVG Export Plug-In . SVG Version: 6.00 Build 0)  -->
<svg version="1.1" xmlns="http://www.w3.org/2000/svg" xmlns:xlink="http://www.w3.org/1999/xlink" x="0px" y="0px"
	 viewBox="0 0 332.2 214" style="enable-background:new 0 0 332.2 214;" xml:space="preserve">
<style type="text/css">
	.st0{fill:none;stroke:#132144;stroke-width:7;stroke-linecap:round;stroke-linejoin:round;}
	.st1{fill:#377DFF;stroke:#377DFF;stroke-width:7;stroke-linecap:round;stroke-linejoin:round;}
	.st2{fill:#FFFFFF;stroke:#132144;stroke-width:7;stroke-linecap:round;stroke-linejoin:round;}
	.st3{fill-rule:evenodd;clip-rule:evenodd;fill:#132144;}
</style>
<g id="ICONS">
	<path class="st0" d="M213.4,23.3c-5.8-7.5-14.6-12.1-24.1-12.5C144.7,8.9,66.1,5.4,28.1,3.5C15.8,2.9,5.3,12.3,4.6,24.6
		C1.8,78.5,5.2,140.7,4.2,159.5c-1,17.6,18.8,25.1,35,27.4"/>
	<path class="st1" d="M223.2,22.7c12.2-0.8,22.8,8.5,23.6,20.7c3.6,53.7,1.1,116,2.5,134.9c-0.6,18.3-28.4,22.6-44.7,23
		c-46.1,1.2-92.4,6.1-138.5,2.9c-8.8-0.6-19-2.1-23.5-9.7c-2.3-3.8-2.5-8.4-2.7-12.8c-1.2-24.3-5.4-79.1-8.2-114.7
		c-1.3-17.8,12-33.2,29.8-34.5c0.2,0,0.3,0,0.5,0C106.6,29.8,185.1,25.2,223.2,22.7z"/>
	<path class="st2" d="M222.6,171.5c-8.2-6.2-14.6-21.1-13.5-35.5c1-12.3,12.6-28.7,24.7-32.3c7.6-2.3,16.5-4.1,24.4-3.6
		c12,0.7,19.5,7.6,25.2,17.8c8.7,15.7,9.2,34.5-3.1,48.6c-8.5,9.6-17.6,12.9-30.3,14.3C243.9,181.4,230.9,177.8,222.6,171.5z"/>
	<path class="st2" d="M278.4,170.1c13.1,13.8,26.5,27.3,40.1,40.5"/>
	<path class="st2" d="M223.7,133.1c2.3-7.4,7.6-13.6,14.6-17"/>
	<path class="st2" d="M248.7,113.1l2.8-1"/>
	<path class="st2" d="M275.8,73.9l7.7-18"/>
	<path class="st2" d="M305.5,92.3l14.8-9.9"/>
	<path class="st2" d="M316.2,127.1l12.6-0.1"/>
</g>
<g id="Layer_2">
	<path class="st3" d="M187.7,125.3c0-2.7-2.7-5.9-5-7.3c-23-15.3-48.6-33.2-60.8-38.5c-6.7-3.2-9.4-2.1-11.8-0.7
		c-2.4,1.4-3.9,2.9-4.8,9.8c-2.5,16.5-1.2,68.5-1.4,73c-0.3,5.3,2.7,7.6,5,9c1.2,0.7,3.7,1.1,5,1.1c1.3,0,3.7-0.6,7.5-2.4
		c12-6.7,47.5-26.1,54-29.6s8.6-5.8,8.9-6C187.7,130.6,187.7,128,187.7,125.3z M116.5,149.4l2.3-48.5c0-2.4,1.6-5.8,5.9-3.9
		c14.5,8.4,30.8,18.6,39.4,24.7c4.2,3,2.8,6.3,0.7,7.5c-2.8,2.3-26.8,16.7-43.7,22.9C119.2,153.3,116.5,151.8,116.5,149.4z"/>
	<path class="st3" d="M167.3,119.4"/>
	<path class="st3" d="M164,113.8"/>
	<path class="st3" d="M119.2,69.6"/>
</g>
</svg>
