<?xml version="1.0" encoding="utf-8"?>
<!-- Generator: Adobe Illustrator 25.2.0, SVG Export Plug-In . SVG Version: 6.00 Build 0)  -->
<svg version="1.1" id="Capa_1" xmlns="http://www.w3.org/2000/svg" xmlns:xlink="http://www.w3.org/1999/xlink" x="0px" y="0px"
	 viewBox="0 0 512 512" style="enable-background:new 0 0 512 512;" xml:space="preserve">
<style type="text/css">
	.st0{fill:#E1EFFB;}
	.st1{fill:#CCDFED;}
	.st2{fill:#FF4C4C;}
	.st3{fill:#FFB125;}
	.st4{fill:#FF901D;}
	.st5{fill:#2D5871;}
	.st6{fill:#F33939;}
	.st7{fill:#1D4859;}
	.st8{fill:#FF6D3A;}
	.st9{fill:#ED5729;}
	.st10{fill:#61AFF6;}
	.st11{fill:#55A2F0;}
	.st12{fill:#FFFFFF;}
</style>
<polygon class="st0" points="432.5,157.2 247.7,34.2 62.8,157.2 62.8,474.2 432.6,474.2 432.6,157.2 "/>
<polygon class="st1" points="432.5,157.2 247.7,34.2 209.7,59.5 386.3,176.9 386.4,176.9 386.4,474.2 432.6,474.2 432.6,157.2 "/>
<path class="st2" d="M28.2,206.6L244.6,62.7c1.9-1.3,4.4-1.3,6.3,0l216.4,143.9c6.1,4.1,14,4.1,20.1,0l0,0
	c10.8-7.2,10.8-23.1,0-30.2L250.8,19c-1.9-1.3-4.4-1.3-6.3,0L8.1,176.4c-10.8,7.2-10.8,23.1,0,30.2l0,0
	C14.2,210.7,22.1,210.7,28.2,206.6z"/>
<circle class="st3" cx="247.7" cy="150.4" r="40"/>
<path class="st4" d="M287.7,150.4c0-2.6-0.3-5.1-0.7-7.6h-31.7v-31.7c-2.4-0.5-5-0.7-7.5-0.7s-5.1,0.3-7.5,0.7v31.7h-31.7
	c-0.5,2.5-0.7,5-0.7,7.6c0,2.6,0.3,5.1,0.7,7.5h31.7v31.7c2.4,0.5,5,0.7,7.5,0.7s5.1-0.3,7.5-0.7v-31.7H287
	C287.4,155.4,287.7,152.9,287.7,150.4z"/>
<rect x="183.9" y="301.4" class="st3" width="127.6" height="192.5"/>
<rect x="247.7" y="301.4" class="st4" width="63.8" height="192.5"/>
<path class="st5" d="M469.1,463.5H26.4c-8.4,0-15.2,6.8-15.2,15.2l0,0c0,8.4,6.8,15.2,15.2,15.2h442.7c8.4,0,15.2-6.8,15.2-15.2l0,0
	C484.3,470.3,477.5,463.5,469.1,463.5z"/>
<path class="st6" d="M494.4,197.6c0.1-0.3,0.2-0.7,0.3-1c0.1-0.2,0.1-0.4,0.1-0.6c0.1-0.3,0.2-0.7,0.2-1c0-0.2,0.1-0.4,0.1-0.6
	c0.1-0.4,0.1-0.9,0.2-1.3c0-0.4,0.1-0.9,0.1-1.3c0-0.2,0-0.4,0-0.6c0-0.4,0-0.7,0-1.1c0-0.2,0-0.4-0.1-0.5c0-0.4-0.1-0.8-0.1-1.1
	c0-0.2-0.1-0.3-0.1-0.5c-0.1-0.4-0.2-0.8-0.3-1.1c0-0.2-0.1-0.3-0.1-0.5c-0.1-0.4-0.2-0.8-0.4-1.1c-0.1-0.2-0.1-0.3-0.2-0.5
	c-0.1-0.4-0.3-0.7-0.5-1.1c-0.1-0.1-0.1-0.3-0.2-0.4c-0.2-0.4-0.4-0.7-0.6-1.1c0-0.1-0.1-0.1-0.1-0.2c0,0,0,0,0,0
	c-1.3-2.1-3.1-4-5.3-5.5l-23.6-15.7l-2.6,4.1c-4.6,7.1-14.2,9.1-21.2,4.4l-189-125.7c-1.9-1.3-4.4-1.3-6.3,0L28.2,187.3
	c-6.1,4.1-14,4.1-20.1,0l0,0c-2.2-1.5-4-3.4-5.3-5.5c-5,8-3.2,19.1,5.4,24.8c6.2,4.1,14.3,3.8,20.5-0.3l216-143.7
	c1.9-1.3,4.4-1.3,6.3,0l216.4,143.9c6.1,4.1,14,4.1,20.1,0c0.5-0.3,0.9-0.6,1.3-1c0.1-0.1,0.3-0.2,0.4-0.4c0.3-0.2,0.5-0.5,0.8-0.7
	c0.2-0.1,0.3-0.3,0.5-0.4c0.3-0.3,0.6-0.6,0.9-1l0,0c0.9-1.1,1.7-2.3,2.3-3.5l0-0.1c0.1-0.1,0.1-0.3,0.2-0.4c0.1-0.3,0.3-0.6,0.4-1
	C494.2,197.9,494.3,197.7,494.4,197.6z"/>
<path class="st7" d="M484.2,477c0-0.1,0-0.2-0.1-0.3c-0.1-0.5-0.1-0.9-0.2-1.4c0-0.1,0-0.2-0.1-0.2c-0.1-0.5-0.3-1-0.4-1.4
	c0,0,0-0.1,0-0.1c-0.2-0.5-0.4-1-0.6-1.5v0l0,0c-2.5-5.1-7.7-8.6-13.7-8.6h-31v6.8c0,5.7-4.7,10.4-10.4,10.4H26.4
	c-6,0-11.2-3.5-13.7-8.6c-1.2,2.5-1.8,5.4-1.4,8.5c1,7.7,7.8,13.3,15.5,13.3h442.3c8.4,0,15.2-6.8,15.2-15.2
	C484.3,478.1,484.2,477.6,484.2,477z"/>
<path class="st8" d="M345.8,493.9h-40.7V209.8c0-11.2,9.1-20.3,20.3-20.3l0,0c11.2,0,20.3,9.1,20.3,20.3L345.8,493.9L345.8,493.9z"
	/>
<path class="st9" d="M325.5,189.5L325.5,189.5c-3.7,0-7.2,1-10.2,2.7c6.1,3.5,10.2,10.1,10.2,17.6v284.1h20.3V209.8
	C345.8,198.6,336.7,189.5,325.5,189.5z"/>
<path class="st10" d="M499.2,393.1H151.8c-7.1,0-12.8-5.7-12.8-12.8V247.6c0-7.1,5.7-12.8,12.8-12.8h347.5c7.1,0,12.8,5.7,12.8,12.8
	v132.7C512,387.3,506.3,393.1,499.2,393.1z"/>
<path class="st11" d="M499.2,234.8h-33.5v126.1c0,7.1-5.7,12.8-12.8,12.8H139v6.7c0,7.1,5.7,12.8,12.8,12.8h347.5
	c7.1,0,12.8-5.7,12.8-12.8V247.6C512,240.5,506.3,234.8,499.2,234.8z"/>
<g>
	<path class="st12" d="M205.5,333.8l-2.5-7.2h-21.2l-2.5,7.4c-1,2.9-1.8,4.8-2.5,5.8c-0.7,1-1.8,1.5-3.4,1.5c-1.3,0-2.5-0.5-3.5-1.6
		c-1-1.1-1.5-2.3-1.5-3.6c0-0.8,0.1-1.6,0.4-2.4c0.2-0.8,0.6-2,1.2-3.5l13.4-37.3c0.4-1.1,0.8-2.4,1.4-3.9c0.5-1.5,1.1-2.8,1.7-3.7
		c0.6-1,1.4-1.8,2.4-2.4c1-0.6,2.2-0.9,3.7-0.9c1.5,0,2.7,0.3,3.7,0.9c1,0.6,1.8,1.4,2.4,2.4c0.6,1,1.1,2,1.5,3.1
		c0.4,1.1,0.9,2.6,1.6,4.5l13.7,37.1c1.1,2.8,1.6,4.9,1.6,6.2c0,1.3-0.5,2.6-1.5,3.7c-1,1.1-2.2,1.7-3.7,1.7c-0.8,0-1.5-0.2-2.1-0.5
		c-0.6-0.3-1.1-0.8-1.5-1.3c-0.4-0.6-0.8-1.4-1.3-2.6C206.3,335.7,205.9,334.7,205.5,333.8z M184.6,317.8h15.6l-7.9-23.7
		L184.6,317.8z"/>
	<path class="st12" d="M253.2,288.9v41.8h21.5c1.7,0,3,0.5,3.9,1.4s1.4,2.1,1.4,3.5c0,1.4-0.5,2.6-1.4,3.4c-0.9,0.9-2.2,1.3-4,1.3
		h-25.6c-2.3,0-4-0.6-5-1.7s-1.5-2.9-1.5-5.5v-44.3c0-2.4,0.5-4.1,1.4-5.3s2.2-1.8,3.8-1.8c1.6,0,2.9,0.6,3.9,1.7
		C252.7,284.8,253.2,286.5,253.2,288.9z"/>
	<path class="st12" d="M306.3,281.8c5.4,0,10.1,1.2,14,3.6c3.9,2.4,6.8,5.9,8.8,10.3s3,9.7,3,15.7c0,4.4-0.5,8.5-1.6,12.1
		c-1.1,3.6-2.7,6.8-4.9,9.4c-2.2,2.7-4.9,4.7-8.1,6.1c-3.2,1.4-6.8,2.1-10.9,2.1c-4.1,0-7.7-0.7-11-2.2c-3.2-1.5-5.9-3.5-8.1-6.1
		c-2.2-2.6-3.8-5.8-4.9-9.5c-1.1-3.7-1.7-7.7-1.7-12c0-4.4,0.6-8.5,1.7-12.2s2.8-6.8,5-9.4s4.8-4.6,8-5.9S302.3,281.8,306.3,281.8z
		 M321.3,311.4c0-4.2-0.6-7.9-1.9-10.9c-1.2-3.1-3-5.4-5.3-7c-2.3-1.6-4.9-2.4-7.9-2.4c-2.1,0-4.1,0.4-5.9,1.3s-3.3,2.2-4.6,3.8
		c-1.3,1.7-2.3,3.8-3.1,6.4c-0.7,2.6-1.1,5.5-1.1,8.8c0,3.3,0.4,6.2,1.1,8.9c0.7,2.6,1.8,4.8,3.2,6.6c1.4,1.7,2.9,3,4.7,3.9
		c1.8,0.9,3.7,1.3,5.8,1.3c2.7,0,5.2-0.7,7.5-2.2s4.1-3.8,5.4-6.9C320.7,319.8,321.3,316,321.3,311.4z"/>
	<path class="st12" d="M341.2,316.5v-27.6c0-2.4,0.5-4.1,1.4-5.3c1-1.2,2.2-1.8,3.8-1.8c1.6,0,2.9,0.6,3.9,1.8
		c1,1.2,1.4,2.9,1.4,5.3v28.3c0,3.2,0.3,5.9,1,8.1c0.7,2.2,1.8,3.8,3.5,5c1.7,1.2,4,1.8,7,1.8c4.1,0,7.1-1.2,8.8-3.6
		c1.7-2.4,2.6-6.1,2.6-11v-28.5c0-2.4,0.5-4.1,1.4-5.3c1-1.2,2.2-1.7,3.8-1.7s2.9,0.6,3.9,1.7c1,1.2,1.5,2.9,1.5,5.3v27.6
		c0,4.5-0.4,8.2-1.2,11.3c-0.8,3-2.3,5.6-4.5,7.9c-1.9,1.9-4.1,3.3-6.6,4.2c-2.5,0.9-5.5,1.3-8.8,1.3c-4,0-7.5-0.5-10.4-1.4
		c-2.9-1-5.3-2.4-7.1-4.4c-1.8-2-3.2-4.6-4-7.7C341.6,324.6,341.2,320.9,341.2,316.5z"/>
	<path class="st12" d="M431,291.8h-23.8v14.1h22c1.6,0,2.8,0.4,3.6,1.2c0.8,0.8,1.2,1.8,1.2,3.2c0,1.3-0.4,2.4-1.2,3.2
		c-0.8,0.8-2,1.2-3.6,1.2h-22v16.4h24.7c1.7,0,2.9,0.4,3.8,1.3c0.8,0.9,1.3,2,1.3,3.4c0,1.4-0.4,2.5-1.3,3.3
		c-0.8,0.8-2.1,1.3-3.8,1.3h-28.8c-2.3,0-4-0.6-5-1.7s-1.5-2.9-1.5-5.5V290c0-1.7,0.2-3,0.7-4.1c0.5-1.1,1.2-1.8,2.1-2.3
		c1-0.5,2.2-0.7,3.7-0.7H431c1.7,0,2.9,0.4,3.8,1.2c0.8,0.8,1.2,1.9,1.2,3.2c0,1.4-0.4,2.5-1.2,3.3C434,291.4,432.7,291.8,431,291.8
		z"/>
	<path class="st12" d="M459.5,315.7h-3.7v18.5c0,2.4-0.5,4.2-1.5,5.4c-1,1.2-2.2,1.7-3.8,1.7c-1.7,0-3-0.6-3.9-1.8
		c-0.9-1.2-1.4-3-1.4-5.3V290c0-2.5,0.5-4.3,1.5-5.4s2.7-1.7,5-1.7h17.2c2.4,0,4.4,0.1,6.1,0.3c1.7,0.2,3.2,0.7,4.6,1.4
		c1.6,0.8,3.1,1.8,4.3,3.3c1.3,1.4,2.2,3.1,2.9,4.9s1,3.8,1,5.9c0,4.3-1.1,7.7-3.3,10.3c-2.2,2.6-5.5,4.4-10,5.5
		c1.9,1.1,3.7,2.7,5.4,4.9c1.7,2.1,3.2,4.4,4.6,6.8c1.3,2.4,2.4,4.6,3.1,6.5c0.7,1.9,1.1,3.3,1.1,4c0,0.8-0.2,1.5-0.7,2.3
		c-0.4,0.7-1,1.3-1.8,1.8c-0.8,0.4-1.6,0.6-2.6,0.6c-1.2,0-2.2-0.3-3-0.9c-0.8-0.6-1.5-1.4-2.1-2.3c-0.6-0.9-1.4-2.3-2.4-4.2
		l-4.2-7.8c-1.5-2.8-2.9-5-4.1-6.5c-1.2-1.5-2.4-2.5-3.7-3.1C462.9,316,461.4,315.7,459.5,315.7z M465.5,291.6h-9.8v15.8h9.5
		c2.5,0,4.7-0.2,6.4-0.7c1.7-0.5,3.1-1.3,4-2.5s1.4-2.8,1.4-4.8c0-1.6-0.4-3-1.1-4.2c-0.7-1.2-1.8-2.1-3.1-2.7
		C471.6,291.9,469.2,291.6,465.5,291.6z"/>
</g>
</svg>
