<svg id="Capa_1" data-name="Capa 1" xmlns="http://www.w3.org/2000/svg" width="512.0003" height="475.791" viewBox="0 0 512.0003 475.791"><defs><style>.cls-1{fill:#e1effb;}.cls-2{fill:#ccdfed;}.cls-3{fill:#ff4c4c;}.cls-4{fill:#ffb125;}.cls-5{fill:#ff901d;}.cls-6{fill:#2d5871;}.cls-7{fill:#f33939;}.cls-8{fill:#1d4859;}.cls-9{fill:#ff6d3a;}.cls-10{fill:#ed5729;}.cls-11{fill:#61aff6;}.cls-12{fill:#55a2f0;}.cls-13{fill:#fff;}</style></defs><polygon class="cls-1" points="432.541 139.116 247.666 16.135 62.791 139.116 62.791 456.101 432.625 456.101 432.625 139.116 432.541 139.116"/><polygon class="cls-2" points="432.541 139.116 247.666 16.135 209.723 41.376 386.303 158.838 386.386 158.838 386.386 456.102 432.625 456.102 432.625 139.116 432.541 139.116"/><path class="cls-3" d="M28.218,206.6,244.583,62.672a5.6412,5.6412,0,0,1,6.251,0L467.198,206.599a18.16,18.16,0,0,0,20.116,0h0a18.1592,18.1592,0,0,0,0-30.24L250.834,19.05a5.6412,5.6412,0,0,0-6.251,0L8.102,176.359a18.1592,18.1592,0,0,0,0,30.24h0A18.1581,18.1581,0,0,0,28.218,206.6Z" transform="translate(0.0003 -18.105)"/><circle class="cls-4" cx="247.7103" cy="132.246" r="39.964"/><path class="cls-5" d="M287.672,150.354a40.1193,40.1193,0,0,0-.726-7.573H255.249V111.11a39.8508,39.8508,0,0,0-15.082,0v31.671H208.47a39.8242,39.8242,0,0,0-.011,15.082h31.709v31.735a39.8508,39.8508,0,0,0,15.082,0V157.863h31.709A40.29,40.29,0,0,0,287.672,150.354Z" transform="translate(0.0003 -18.105)"/><rect class="cls-4" x="183.8902" y="283.246" width="127.63" height="192.54"/><rect class="cls-5" x="247.7103" y="283.246" width="63.816" height="192.54"/><path class="cls-6" d="M469.066,463.474H26.35a15.2107,15.2107,0,0,0-15.211,15.211h0A15.2107,15.2107,0,0,0,26.35,493.896H469.066a15.2107,15.2107,0,0,0,15.211-15.211h0A15.2107,15.2107,0,0,0,469.066,463.474Z" transform="translate(0.0003 -18.105)"/><path class="cls-7" d="M494.357,197.56c.118-.334.237-.667.335-1.006.055-.19.094-.383.142-.574.086-.341.177-.68.243-1.024.037-.191.058-.385.086-.577.066-.444.135-.888.166-1.336.031-.443.072-.886.077-1.33.002-.187-.012-.372-.016-.559-.006-.372-.013-.744-.042-1.116-.014-.181-.043-.361-.062-.542-.041-.377-.084-.752-.147-1.126-.03-.173-.071-.343-.105-.516-.076-.379-.157-.757-.258-1.132-.044-.164-.097-.326-.146-.49-.113-.378-.233-.753-.371-1.124-.058-.156-.122-.309-.185-.464-.15-.373-.31-.741-.486-1.105-.071-.147-.146-.292-.222-.437q-.282-.5445-.602-1.072c-.043-.07-.076-.144-.12-.213l-.008.011a18.0408,18.0408,0,0,0-5.325-5.47l-23.627-15.717-2.646,4.063a15.2368,15.2368,0,0,1-21.207,4.371L250.834,43.351a5.6412,5.6412,0,0,0-6.251,0L28.218,187.279a18.16,18.16,0,0,1-20.116,0h0a18.0974,18.0974,0,0,1-5.333-5.46,18.1752,18.1752,0,0,0,5.354,24.795,18.5655,18.5655,0,0,0,20.478-.27L244.583,62.672a5.6412,5.6412,0,0,1,6.251,0L467.198,206.599a18.16,18.16,0,0,0,20.116,0c.468-.311.907-.644,1.334-.987.149-.119.292-.242.436-.364q.4065-.35.786-.716c.153-.147.311-.291.458-.442q.459-.474.877-.972l.016-.024a17.8193,17.8193,0,0,0,2.296-3.525l.039-.06c.067-.136.118-.278.181-.416.148-.322.296-.643.423-.972C494.232,197.935,494.291,197.747,494.357,197.56Z" transform="translate(0.0003 -18.105)"/><path class="cls-8" d="M484.178,476.997c-.013-.112-.035-.22-.051-.331-.061-.458-.138-.91-.239-1.354-.018-.079-.041-.155-.06-.234a14.86,14.86,0,0,0-.423-1.428l-.033-.09a15.2357,15.2357,0,0,0-.627-1.494v-.001h0a15.1963,15.1963,0,0,0-13.679-8.592H438.038v6.789a10.395,10.395,0,0,1-10.395,10.395H26.35a15.1963,15.1963,0,0,1-13.679-8.592,15.1072,15.1072,0,0,0-1.414,8.514,15.4965,15.4965,0,0,0,15.501,13.316H469.066a15.1674,15.1674,0,0,0,15.112-16.898Z" transform="translate(0.0003 -18.105)"/><path class="cls-9" d="M345.827,493.896H305.149V209.79a20.3389,20.3389,0,0,1,20.339-20.339h0a20.3389,20.3389,0,0,1,20.339,20.339V493.896Z" transform="translate(0.0003 -18.105)"/><path class="cls-10" d="M325.488,189.451h0a20.22,20.22,0,0,0-10.169,2.743,20.3146,20.3146,0,0,1,10.169,17.596V493.896h20.339V209.79A20.34,20.34,0,0,0,325.488,189.451Z" transform="translate(0.0003 -18.105)"/><path class="cls-11" d="M499.223,393.057H151.752a12.7764,12.7764,0,0,1-12.777-12.777V247.56a12.7764,12.7764,0,0,1,12.777-12.777H499.223A12.7764,12.7764,0,0,1,512,247.56V380.28A12.7771,12.7771,0,0,1,499.223,393.057Z" transform="translate(0.0003 -18.105)"/><path class="cls-12" d="M499.223,234.782H465.761V360.841a12.7764,12.7764,0,0,1-12.777,12.777H138.975v6.662a12.7771,12.7771,0,0,0,12.777,12.777H499.223A12.7771,12.7771,0,0,0,512,380.28V247.56A12.7773,12.7773,0,0,0,499.223,234.782Z" transform="translate(0.0003 -18.105)"/><path class="cls-13" d="M205.5239,333.7988l-2.4951-7.2148H181.7847l-2.4951,7.3721a27.0052,27.0052,0,0,1-2.4952,5.8222,3.8085,3.8085,0,0,1-3.3862,1.51,4.7457,4.7457,0,0,1-3.5288-1.6074,5.1457,5.1457,0,0,1-1.5327-3.6465,8.8816,8.8816,0,0,1,.3564-2.4317q.356-1.2539,1.1763-3.4892l13.3667-37.3272q.57-1.6069,1.3726-3.8623A20.3251,20.3251,0,0,1,186.33,285.18a7.2447,7.2447,0,0,1,2.3877-2.4111,6.7851,6.7851,0,0,1,3.6538-.9219,6.8578,6.8578,0,0,1,3.689.9219,7.3955,7.3955,0,0,1,2.3886,2.372,17.3143,17.3143,0,0,1,1.5323,3.1172q.6233,1.667,1.5864,4.45L215.2192,329.8a20.1146,20.1146,0,0,1,1.604,6.1553,5.3363,5.3363,0,0,1-1.5151,3.666,4.7625,4.7625,0,0,1-3.6533,1.667,4.3818,4.3818,0,0,1-2.1387-.49,4.4878,4.4878,0,0,1-1.4971-1.3331,12.609,12.609,0,0,1-1.3007-2.5878Q206.0225,335.1324,205.5239,333.7988Zm-20.959-15.958h15.6123L192.3,294.1191Z" transform="translate(0.0003 -18.105)"/><path class="cls-13" d="M253.2163,288.9043V330.74h21.4566a5.3305,5.3305,0,0,1,3.9394,1.3731,4.6816,4.6816,0,0,1,1.3731,3.45,4.5668,4.5668,0,0,1-1.3555,3.4306,5.4622,5.4622,0,0,1-3.957,1.3135H249.1167q-3.4571,0-4.9727-1.6855t-1.5136-5.45V288.9043a8.2237,8.2237,0,0,1,1.4433-5.293,4.6631,4.6631,0,0,1,3.795-1.7646,4.8318,4.8318,0,0,1,3.8691,1.7451A8.0809,8.0809,0,0,1,253.2163,288.9043Z" transform="translate(0.0003 -18.105)"/><path class="cls-13" d="M306.29,281.8467a25.8836,25.8836,0,0,1,13.9551,3.6269,22.7436,22.7436,0,0,1,8.8223,10.3125,38.141,38.141,0,0,1,2.9941,15.7032,41.97,41.97,0,0,1-1.64,12.1152,26.9766,26.9766,0,0,1-4.919,9.4492,21.5937,21.5937,0,0,1-8.0556,6.1172,29.0509,29.0509,0,0,1-21.9209-.06,21.8447,21.8447,0,0,1-8.0918-6.1357,26.98,26.98,0,0,1-4.9014-9.5274,42.0354,42.0354,0,0,1-1.6572-12.038,40.5734,40.5734,0,0,1,1.7285-12.1543,26.75,26.75,0,0,1,5.0078-9.41,21.6884,21.6884,0,0,1,7.9844-5.94A26.4358,26.4358,0,0,1,306.29,281.8467ZM321.333,311.41a29.3618,29.3618,0,0,0-1.8535-10.9385,14.9743,14.9743,0,0,0-5.294-6.999,13.571,13.571,0,0,0-7.8955-2.3721,12.9188,12.9188,0,0,0-10.497,5.1357,18.9593,18.9593,0,0,0-3.0655,6.4112,31.6941,31.6941,0,0,0-1.123,8.7627,32.4786,32.4786,0,0,0,1.123,8.8613,18.7963,18.7963,0,0,0,3.1729,6.5674,13.5085,13.5085,0,0,0,4.7051,3.9013,13.109,13.109,0,0,0,5.8271,1.294A13.3274,13.3274,0,0,0,313.9,329.8a15.1062,15.1062,0,0,0,5.418-6.9014A28.9949,28.9949,0,0,0,321.333,311.41Z" transform="translate(0.0003 -18.105)"/><path class="cls-13" d="M341.1865,316.5469V288.9043a8.23,8.23,0,0,1,1.4434-5.293,4.6648,4.6648,0,0,1,3.7959-1.7646,4.776,4.776,0,0,1,3.9033,1.7646,8.2235,8.2235,0,0,1,1.4443,5.293v28.2705a28.2032,28.2032,0,0,0,.98,8.0566,9.2445,9.2445,0,0,0,3.4756,5.02,11.8545,11.8545,0,0,0,6.9863,1.7832q6.2022,0,8.7686-3.627,2.5664-3.6255,2.5664-10.998V288.9043a8.2836,8.2836,0,0,1,1.4258-5.3125,4.6731,4.6731,0,0,1,3.8135-1.7451,4.83,4.83,0,0,1,3.8681,1.7451,8.0752,8.0752,0,0,1,1.48,5.3125v27.6426A44.7862,44.7862,0,0,1,383.9424,327.8a17.7093,17.7093,0,0,1-4.5088,7.92,17.2258,17.2258,0,0,1-6.6309,4.2354,26.5931,26.5931,0,0,1-8.84,1.333,33.33,33.33,0,0,1-10.3721-1.4317,16.28,16.28,0,0,1-7.0928-4.4306,18.3221,18.3221,0,0,1-4.0283-7.6846A42.7689,42.7689,0,0,1,341.1865,316.5469Z" transform="translate(0.0003 -18.105)"/><path class="cls-13" d="M431.0107,291.8057H407.1641v14.1152h21.957a4.9159,4.9159,0,0,1,3.6182,1.1963,4.2725,4.2725,0,0,1,1.1943,3.1562,4.4455,4.4455,0,0,1-1.1758,3.1954,4.8118,4.8118,0,0,1-3.6367,1.2353h-21.957v16.3506H431.83a5.0857,5.0857,0,0,1,3.7607,1.2734,4.6037,4.6037,0,0,1,1.2656,3.3916,4.496,4.496,0,0,1-1.2656,3.3135,5.0819,5.0819,0,0,1-3.7607,1.2744H403.0654q-3.4584,0-4.9726-1.6855t-1.5147-5.45v-43.209a10.5292,10.5292,0,0,1,.6778-4.0967,4.428,4.428,0,0,1,2.12-2.3135,8.2118,8.2118,0,0,1,3.6894-.7256h27.9453a5.1035,5.1035,0,0,1,3.7608,1.2354,4.3858,4.3858,0,0,1,1.2295,3.2344,4.4389,4.4389,0,0,1-1.2295,3.2744A5.1074,5.1074,0,0,1,431.0107,291.8057Z" transform="translate(0.0003 -18.105)"/><path class="cls-13" d="M459.4912,315.7236h-3.707v18.4678q0,3.6461-1.4619,5.3711a4.7591,4.7591,0,0,1-3.8135,1.7256,4.6654,4.6654,0,0,1-3.9219-1.8037,8.5654,8.5654,0,0,1-1.39-5.293V289.9629q0-3.7632,1.5322-5.4492t4.9551-1.6866h17.2168a47.69,47.69,0,0,1,6.0947.3331,14.261,14.261,0,0,1,4.5625,1.3535,13.236,13.236,0,0,1,4.3486,3.2539,14.489,14.489,0,0,1,2.8692,4.9209,17.8715,17.8715,0,0,1,.98,5.94q0,6.4307-3.2968,10.2725t-9.9981,5.45a19.883,19.883,0,0,1,5.3819,4.8613,49.4086,49.4086,0,0,1,4.58,6.8418,52.6236,52.6236,0,0,1,3.1367,6.5488,13.9093,13.9093,0,0,1,1.1231,4.0186,4.3967,4.3967,0,0,1-.6592,2.2549,4.8094,4.8094,0,0,1-1.8008,1.7636,5.2466,5.2466,0,0,1-2.6367.6475,4.7978,4.7978,0,0,1-2.9941-.9219,8.4928,8.4928,0,0,1-2.086-2.333q-.873-1.4106-2.37-4.1562l-4.2412-7.7627a43.0714,43.0714,0,0,0-4.082-6.5088,10.223,10.223,0,0,0-3.6533-3.0586A11.54,11.54,0,0,0,459.4912,315.7236Zm6.0586-24.1523h-9.7656v15.8008h9.48a24.2132,24.2132,0,0,0,6.4161-.7256,7.3988,7.3988,0,0,0,3.9746-2.47,7.5806,7.5806,0,0,0,1.373-4.8038,7.9763,7.9763,0,0,0-1.1054-4.2148,6.8593,6.8593,0,0,0-3.0655-2.7246Q471.003,291.5708,465.55,291.5713Z" transform="translate(0.0003 -18.105)"/></svg>