<svg id="Calque_1" data-name="Calque 1" xmlns="http://www.w3.org/2000/svg" width="464" height="425.3984" viewBox="0 0 464 425.3984"><defs><style>.cls-1{fill:#c49a6c;}.cls-2{fill:#00ccb3;}.cls-3{fill:#d1d3d4;}.cls-4{fill:#e6e7e8;}.cls-5{fill:#8b5e3c;}.cls-6{fill:#ff6243;}.cls-7{fill:#ffc477;}.cls-8{fill:#a97c50;}.cls-9{fill:#ffb655;}.cls-10{fill:#ff5023;}.cls-11{fill:#ffa733;}.cls-12{fill:#754c29;}.cls-13{fill:#603913;}.cls-14{fill:#fff;}</style></defs><path class="cls-1" d="M88,204.3984v240H376v-240Z" transform="translate(0 -19)"/><path class="cls-2" d="M464,444.3984H328a32.0016,32.0016,0,0,1,32-32c.3984,0,.8008.0821,1.1992.0821A29.9778,29.9778,0,0,1,360,404.3984a32,32,0,0,1,64,0A40.002,40.002,0,0,1,464,444.3984Z" transform="translate(0 -19)"/><path class="cls-3" d="M184,268.3984h48v24H192a8,8,0,0,1-8-8Z" transform="translate(0 -19)"/><path class="cls-3" d="M280,252.3984v16H232v-24h40A8,8,0,0,1,280,252.3984Z" transform="translate(0 -19)"/><path class="cls-4" d="M280,268.3984v16a8,8,0,0,1-8,8H232v-24Z" transform="translate(0 -19)"/><path class="cls-4" d="M192,244.3984h40v24H184v-16A8,8,0,0,1,192,244.3984Z" transform="translate(0 -19)"/><path class="cls-4" d="M304,332.3984h48v48H304Z" transform="translate(0 -19)"/><path class="cls-4" d="M112,332.3984h48v48H112Z" transform="translate(0 -19)"/><path class="cls-5" d="M184,316.3984h96v128H184Z" transform="translate(0 -19)"/><path class="cls-6" d="M428,208.3984a16.9706,16.9706,0,0,1-24,24l-60-60h48Z" transform="translate(0 -19)"/><path class="cls-6" d="M232,44.3984a16.0511,16.0511,0,0,0-16,16v16l-156,156a16.9706,16.9706,0,0,1-24-24L220.7188,23.68a15.9375,15.9375,0,0,1,22.5624,0L264,44.3984Z" transform="translate(0 -19)"/><path class="cls-7" d="M376,204.3984H88l128-128v80a16.0485,16.0485,0,0,0,16,16H344Z" transform="translate(0 -19)"/><path class="cls-8" d="M136,444.3984H88v-49.68a23.1714,23.1714,0,0,1,6.5586,9.84c.4805,0,.9609-.16,1.4414-.16a37.6918,37.6918,0,0,1,8,.8008A39.9989,39.9989,0,0,1,136,444.3984Z" transform="translate(0 -19)"/><path class="cls-9" d="M236.7188,71.68A13.648,13.648,0,0,1,240,69.1992a15.9058,15.9058,0,0,0-19.2812,2.48L88,204.3984h16Z" transform="translate(0 -19)"/><path class="cls-8" d="M88,204.3984v16l16-16Z" transform="translate(0 -19)"/><path class="cls-3" d="M112,332.3984h16v48H112Z" transform="translate(0 -19)"/><path class="cls-3" d="M304,332.3984h16v48H304Z" transform="translate(0 -19)"/><path class="cls-10" d="M408,188.3984H360l-16-16h48Z" transform="translate(0 -19)"/><path class="cls-11" d="M62.9975,44.3984H411.282a16.0008,16.0008,0,0,1,16,16v96a16.0008,16.0008,0,0,1-16,16H62.9975a16.0008,16.0008,0,0,1-16-16v-96A16.0008,16.0008,0,0,1,62.9975,44.3984Z" transform="translate(0 -19)"/><path class="cls-2" d="M88,405.1992a39.9989,39.9989,0,0,1,32,39.1992H0a24.0012,24.0012,0,0,1,24-24,23.6254,23.6254,0,0,1,10.5586,2.5625A23.6868,23.6868,0,0,1,32,412.3984a23.9272,23.9272,0,0,1,46.5586-7.84c.4805,0,.9609-.16,1.4414-.16A37.6918,37.6918,0,0,1,88,405.1992Z" transform="translate(0 -19)"/><path class="cls-12" d="M184,316.3984h16v128H184Z" transform="translate(0 -19)"/><path class="cls-12" d="M184,316.3984h96v16H184Z" transform="translate(0 -19)"/><path class="cls-12" d="M352,388.3984H304a8,8,0,0,1-8-8v-48a8,8,0,0,1,8-8h48a8,8,0,0,1,8,8v48A8,8,0,0,1,352,388.3984Zm-40-16h32v-32H312Z" transform="translate(0 -19)"/><path class="cls-12" d="M160,388.3984H112a8,8,0,0,1-8-8v-48a8,8,0,0,1,8-8h48a8,8,0,0,1,8,8v48A8,8,0,0,1,160,388.3984Zm-40-16h32v-32H120Z" transform="translate(0 -19)"/><path class="cls-12" d="M272,236.3984H192a16.0008,16.0008,0,0,0-16,16v32a16.0008,16.0008,0,0,0,16,16h80a16.0008,16.0008,0,0,0,16-16v-32A16.0008,16.0008,0,0,0,272,236.3984Zm0,24H240v-8h32Zm-48-8v8H192v-8Zm-32,24h32v8H192Zm48,8v-8h32v8Z" transform="translate(0 -19)"/><path class="cls-13" d="M216,396.3984H200v-16h8v-16h-8v-16h16a8,8,0,0,1,8,8v32A8,8,0,0,1,216,396.3984Z" transform="translate(0 -19)"/><path class="cls-14" d="M103.874,128.2646l-2.1875-6.3251H83.0615l-2.1875,6.4628a23.6782,23.6782,0,0,1-2.1875,5.1045,3.3388,3.3388,0,0,1-2.9687,1.3233,4.16,4.16,0,0,1-3.0938-1.4092,4.51,4.51,0,0,1-1.3437-3.1973,7.7763,7.7763,0,0,1,.3125-2.1308q.312-1.1,1.0312-3.06L84.3428,92.3086q.4995-1.4093,1.2031-3.3867a17.84,17.84,0,0,1,1.5-3.2823A6.36,6.36,0,0,1,89.14,83.5254a5.9522,5.9522,0,0,1,3.2032-.8076,6.0165,6.0165,0,0,1,3.2343.8076,6.4859,6.4859,0,0,1,2.0938,2.08,15.1117,15.1117,0,0,1,1.3437,2.7324q.5464,1.4619,1.3907,3.9014l11.9687,32.5185a17.64,17.64,0,0,1,1.4063,5.3975,4.6775,4.6775,0,0,1-1.3282,3.2138,4.1773,4.1773,0,0,1-3.2031,1.461,3.8388,3.8388,0,0,1-1.875-.43,3.9357,3.9357,0,0,1-1.3125-1.169,11.0646,11.0646,0,0,1-1.1406-2.2685Q104.3115,129.4337,103.874,128.2646ZM85.499,114.2734H99.1865L92.28,93.4766Z" transform="translate(0 -19)"/><path class="cls-14" d="M143.374,89.4209l10.375,33.79L164.1553,89.18q.8122-2.6806,1.2187-3.73a4.9361,4.9361,0,0,1,1.3438-1.8906,3.6957,3.6957,0,0,1,2.5625-.8418,3.9983,3.9983,0,0,1,2.2031.6528,4.8159,4.8159,0,0,1,2.1719,3.9185,7.827,7.827,0,0,1-.1875,1.6328,15.8687,15.8687,0,0,1-.4688,1.7187q-.2812.8438-.5625,1.7364l-11.0937,32.9316q-.594,1.89-1.1875,3.5918a15.8349,15.8349,0,0,1-1.375,2.99,6.43,6.43,0,0,1-2.0782,2.1143,5.7936,5.7936,0,0,1-3.1718.8252,5.8908,5.8908,0,0,1-3.1719-.8076,6.2983,6.2983,0,0,1-2.0938-2.1319,16.3288,16.3288,0,0,1-1.3906-3.0078q-.594-1.6832-1.1875-3.5742L134.78,92.6523q-.2812-.8935-.5782-1.7539a14.55,14.55,0,0,1-.5-1.8554,8.6668,8.6668,0,0,1-.2031-1.6846,4.7066,4.7066,0,0,1,1.2813-3.1973,4.1209,4.1209,0,0,1,3.2187-1.4433,3.6289,3.6289,0,0,1,3.3594,1.5986A22.3843,22.3843,0,0,1,143.374,89.4209Z" transform="translate(0 -19)"/><path class="cls-14" d="M210.8115,91.4492H189.9053v12.375h19.25a4.3116,4.3116,0,0,1,3.1718,1.0479,3.7462,3.7462,0,0,1,1.0469,2.7675,3.8976,3.8976,0,0,1-1.0312,2.8018,4.2163,4.2163,0,0,1-3.1875,1.082h-19.25v14.335H211.53a4.4558,4.4558,0,0,1,3.2973,1.1172,4.0394,4.0394,0,0,1,1.1094,2.9736,3.948,3.948,0,0,1-1.1094,2.9043,4.4558,4.4558,0,0,1-3.2973,1.1172H186.3115q-3.0315,0-4.3594-1.4785-1.3286-1.4766-1.3281-4.7774V89.833a9.24,9.24,0,0,1,.5938-3.5918,3.8825,3.8825,0,0,1,1.8593-2.0283,7.1977,7.1977,0,0,1,3.2344-.6358h24.5a4.4721,4.4721,0,0,1,3.2969,1.0831,3.8418,3.8418,0,0,1,1.0786,2.8359,3.8874,3.8874,0,0,1-1.0786,2.87A4.4762,4.4762,0,0,1,210.8115,91.4492Z" transform="translate(0 -19)"/><path class="cls-14" d="M235.4053,88.8359l17.8437,29.7V88.5615a7.0463,7.0463,0,0,1,1.1406-4.3828,3.6992,3.6992,0,0,1,3.0782-1.4609,3.8089,3.8089,0,0,1,3.1562,1.4609,6.98,6.98,0,0,1,1.1563,4.3828v39.6338q0,6.6357-5,6.6348a6.0707,6.0707,0,0,1-2.25-.3955,5.6335,5.6335,0,0,1-1.875-1.2549,11.8315,11.8315,0,0,1-1.625-2.0108q-.75-1.1513-1.5-2.3544L232.1245,99.458v29.5283a6.7262,6.7262,0,0,1-1.2187,4.3653,3.87,3.87,0,0,1-3.125,1.4785,3.8269,3.8269,0,0,1-3.1563-1.4951,6.8667,6.8667,0,0,1-1.1875-4.3487V90.1084a12.0086,12.0086,0,0,1,.5-3.8848,5.4333,5.4333,0,0,1,1.9688-2.5263,5.0121,5.0121,0,0,1,2.9687-.98,4.7288,4.7288,0,0,1,2.1406.4468,5.1949,5.1949,0,0,1,1.5625,1.2026,12.4753,12.4753,0,0,1,1.3745,1.96Q234.6553,87.53,235.4053,88.8359Z" transform="translate(0 -19)"/><path class="cls-14" d="M277.6865,83.5771H289.78a29.8211,29.8211,0,0,1,8.0937.962,14.5269,14.5269,0,0,1,6.125,3.6093q7.1557,6.7383,7.1563,20.4883a44.15,44.15,0,0,1-.7188,8.2842,26.0957,26.0957,0,0,1-2.2187,6.7549,20.825,20.825,0,0,1-3.8438,5.3789,15.8452,15.8452,0,0,1-4.0312,2.9219,16.9832,16.9832,0,0,1-4.7032,1.5468,32.5247,32.5247,0,0,1-5.6718.4473H277.874a6.9963,6.9963,0,0,1-3.8125-.8418,3.8835,3.8835,0,0,1-1.6719-2.3721,16.4968,16.4968,0,0,1-.3906-3.9707V89.833q0-3.3,1.3438-4.7783A5.62,5.62,0,0,1,277.6865,83.5771Zm3.5938,8.0782v34.2031h7.0312q2.3115,0,3.625-.1377a10.4514,10.4514,0,0,0,2.7188-.6875,7.2623,7.2623,0,0,0,2.4375-1.5469q4.6553-4.3315,4.6562-14.9189,0-7.4591-2.0469-11.1719a9.396,9.396,0,0,0-5.0468-4.7266,22.79,22.79,0,0,0-7.25-1.0136Z" transform="translate(0 -19)"/><path class="cls-14" d="M331.78,112.418h-3.25v16.19a7.1912,7.1912,0,0,1-1.2813,4.709,4.1723,4.1723,0,0,1-3.3437,1.5127,4.0889,4.0889,0,0,1-3.4375-1.5811,7.5026,7.5026,0,0,1-1.2188-4.6406V89.833q0-3.3,1.3438-4.7783a5.62,5.62,0,0,1,4.3437-1.4776H340.03a41.8213,41.8213,0,0,1,5.3437.292,12.5139,12.5139,0,0,1,4,1.1856,11.6148,11.6148,0,0,1,3.8125,2.8535,12.7139,12.7139,0,0,1,2.5156,4.3145,15.6774,15.6774,0,0,1,.8594,5.207q0,5.6382-2.8906,9.0068t-8.7656,4.7783a17.4074,17.4074,0,0,1,4.7187,4.2618,43.34,43.34,0,0,1,4.0156,5.999,46.2279,46.2279,0,0,1,2.75,5.74,12.2119,12.2119,0,0,1,.9844,3.5235,3.859,3.859,0,0,1-.5781,1.9765,4.2168,4.2168,0,0,1-1.5781,1.5469,4.6093,4.6093,0,0,1-2.3125.5674,4.2128,4.2128,0,0,1-2.625-.8076,7.4441,7.4441,0,0,1-1.8282-2.0459q-.766-1.2364-2.0781-3.6436l-3.7187-6.8057a37.8491,37.8491,0,0,0-3.5782-5.707,8.9766,8.9766,0,0,0-3.2031-2.6807A10.1135,10.1135,0,0,0,331.78,112.418Zm5.3125-21.1758H328.53v13.8535h8.3125a21.2758,21.2758,0,0,0,5.625-.6357,6.4833,6.4833,0,0,0,3.4843-2.1661,6.6452,6.6452,0,0,0,1.2032-4.2109,6.9915,6.9915,0,0,0-.9688-3.6953,6.0118,6.0118,0,0,0-2.6875-2.3887Q341.873,91.2431,337.0928,91.2422Z" transform="translate(0 -19)"/><path class="cls-14" d="M395.53,91.4492H374.624v12.375h19.25a4.3127,4.3127,0,0,1,3.1719,1.0479,3.7481,3.7481,0,0,1,1.0469,2.7675,3.8977,3.8977,0,0,1-1.0313,2.8018,4.2163,4.2163,0,0,1-3.1875,1.082h-19.25v14.335h21.625a4.4548,4.4548,0,0,1,3.2969,1.1172,4.0354,4.0354,0,0,1,1.1094,2.9736,3.944,3.944,0,0,1-1.1094,2.9043,4.4548,4.4548,0,0,1-3.2969,1.1172H371.03q-3.0322,0-4.3594-1.4785-1.3286-1.4766-1.3281-4.7774V89.833a9.23,9.23,0,0,1,.5937-3.5918,3.8823,3.8823,0,0,1,1.8594-2.0283,7.1974,7.1974,0,0,1,3.2344-.6358h24.5a4.4724,4.4724,0,0,1,3.2968,1.0831,3.8431,3.8431,0,0,1,1.0782,2.8359,3.8887,3.8887,0,0,1-1.0782,2.87A4.4766,4.4766,0,0,1,395.53,91.4492Z" transform="translate(0 -19)"/></svg>