<?xml version="1.0" encoding="utf-8"?>
<!-- Generator: Adobe Illustrator 25.2.0, SVG Export Plug-In . SVG Version: 6.00 Build 0)  -->
<svg version="1.1" id="Calque_1" xmlns="http://www.w3.org/2000/svg" xmlns:xlink="http://www.w3.org/1999/xlink" x="0px" y="0px"
	 viewBox="0 0 464 464" style="enable-background:new 0 0 464 464;" xml:space="preserve">
<style type="text/css">
	.st0{fill:#C49A6C;}
	.st1{fill:#00CCB3;}
	.st2{fill:#D1D3D4;}
	.st3{fill:#E6E7E8;}
	.st4{fill:#8B5E3C;}
	.st5{fill:#FF6243;}
	.st6{fill:#FFC477;}
	.st7{fill:#A97C50;}
	.st8{fill:#FFB655;}
	.st9{fill:#FF5023;}
	.st10{fill:#FFA733;}
	.st11{fill:#754C29;}
	.st12{fill:#603913;}
	.st13{fill:#FFFFFF;}
</style>
<path class="st0" d="M88,204.4v240h288v-240H88z"/>
<path class="st1" d="M464,444.4H328c0-17.7,14.3-32,32-32c0.4,0,0.8,0.1,1.2,0.1c-0.8-2.6-1.2-5.3-1.2-8.1c0-17.7,14.3-32,32-32
	s32,14.3,32,32C446.1,404.4,464,422.3,464,444.4z"/>
<path class="st2" d="M184,268.4h48v24h-40c-4.4,0-8-3.6-8-8V268.4z"/>
<path class="st2" d="M280,252.4v16h-48v-24h40C276.4,244.4,280,248,280,252.4z"/>
<path class="st3" d="M280,268.4v16c0,4.4-3.6,8-8,8h-40v-24H280z"/>
<path class="st3" d="M192,244.4h40v24h-48v-16C184,248,187.6,244.4,192,244.4z"/>
<path class="st3" d="M304,332.4h48v48h-48V332.4z"/>
<path class="st3" d="M112,332.4h48v48h-48V332.4z"/>
<path class="st4" d="M184,316.4h96v128h-96V316.4z"/>
<path class="st5" d="M428,208.4c6.6,6.6,6.6,17.4,0,24c-6.6,6.6-17.4,6.6-24,0l-60-60h48L428,208.4z"/>
<path class="st5" d="M232,44.4c-8.8,0-16,7.2-16,16v16l-156,156c-6.6,6.6-17.4,6.6-24,0c-6.6-6.6-6.6-17.4,0-24L220.7,23.7
	c3-3,7.1-4.7,11.3-4.7s8.3,1.7,11.3,4.7L264,44.4H232z"/>
<path class="st6" d="M376,204.4H88l128-128v80c0,8.8,7.2,16,16,16h112L376,204.4z"/>
<path class="st7" d="M136,444.4H88v-49.7c3,2.7,5.3,6,6.6,9.8c0.5,0,1-0.2,1.4-0.2c2.7,0,5.4,0.2,8,0.8
	C122.6,409,136,425.4,136,444.4z"/>
<path class="st8" d="M236.7,71.7c1-1,2.1-1.8,3.3-2.5c-6.2-3.7-14.2-2.6-19.3,2.5L88,204.4h16L236.7,71.7z"/>
<path class="st7" d="M88,204.4v16l16-16H88z"/>
<path class="st2" d="M112,332.4h16v48h-16V332.4z"/>
<path class="st2" d="M304,332.4h16v48h-16V332.4z"/>
<path class="st9" d="M408,188.4h-48l-16-16h48L408,188.4z"/>
<path class="st10" d="M63,44.4h348.3c8.8,0,16,7.2,16,16v96c0,8.8-7.2,16-16,16H63c-8.8,0-16-7.2-16-16v-96
	C47,51.6,54.2,44.4,63,44.4z"/>
<path class="st1" d="M88,405.2c18.6,3.8,32,20.2,32,39.2H0c0-13.3,10.7-24,24-24c3.7,0,7.3,0.9,10.6,2.6c-1.7-3.3-2.5-6.9-2.6-10.6
	c0-11.7,8.4-21.7,20-23.7s22.8,4.8,26.6,15.8c0.5,0,1-0.2,1.4-0.2C82.7,404.4,85.4,404.6,88,405.2z"/>
<g>
	<path class="st11" d="M184,316.4h16v128h-16V316.4z"/>
	<path class="st11" d="M184,316.4h96v16h-96V316.4z"/>
	<path class="st11" d="M352,388.4h-48c-4.4,0-8-3.6-8-8v-48c0-4.4,3.6-8,8-8h48c4.4,0,8,3.6,8,8v48C360,384.8,356.4,388.4,352,388.4
		z M312,372.4h32v-32h-32V372.4z"/>
	<path class="st11" d="M160,388.4h-48c-4.4,0-8-3.6-8-8v-48c0-4.4,3.6-8,8-8h48c4.4,0,8,3.6,8,8v48C168,384.8,164.4,388.4,160,388.4
		z M120,372.4h32v-32h-32V372.4z"/>
	<path class="st11" d="M272,236.4h-80c-8.8,0-16,7.2-16,16v32c0,8.8,7.2,16,16,16h80c8.8,0,16-7.2,16-16v-32
		C288,243.6,280.8,236.4,272,236.4z M272,260.4h-32v-8h32V260.4z M224,252.4v8h-32v-8H224z M192,276.4h32v8h-32V276.4z M240,284.4
		v-8h32v8H240z"/>
</g>
<path class="st12" d="M216,396.4h-16v-16h8v-16h-8v-16h16c4.4,0,8,3.6,8,8v32C224,392.8,220.4,396.4,216,396.4z"/>
<g>
	<path class="st13" d="M103.9,128.3l-2.2-6.3H83.1l-2.2,6.5c-0.9,2.5-1.6,4.2-2.2,5.1c-0.6,0.9-1.6,1.3-3,1.3
		c-1.2,0-2.2-0.5-3.1-1.4c-0.9-0.9-1.3-2-1.3-3.2c0-0.7,0.1-1.4,0.3-2.1c0.2-0.7,0.6-1.8,1-3.1l11.7-32.7c0.3-0.9,0.7-2.1,1.2-3.4
		c0.5-1.3,1-2.4,1.5-3.3s1.2-1.6,2.1-2.1c0.9-0.5,1.9-0.8,3.2-0.8c1.3,0,2.4,0.3,3.2,0.8c0.9,0.5,1.6,1.2,2.1,2.1s1,1.8,1.3,2.7
		c0.4,1,0.8,2.3,1.4,3.9l12,32.5c0.9,2.5,1.4,4.3,1.4,5.4c0,1.2-0.4,2.2-1.3,3.2c-0.9,1-2,1.5-3.2,1.5c-0.7,0-1.4-0.1-1.9-0.4
		c-0.5-0.3-1-0.7-1.3-1.2c-0.4-0.5-0.7-1.2-1.1-2.3S104.2,129,103.9,128.3z M85.5,114.3h13.7l-6.9-20.8L85.5,114.3z"/>
	<path class="st13" d="M143.4,89.4l10.4,33.8l10.4-34c0.5-1.8,0.9-3,1.2-3.7c0.3-0.7,0.7-1.3,1.3-1.9c0.6-0.6,1.5-0.8,2.6-0.8
		c0.8,0,1.5,0.2,2.2,0.7c0.7,0.4,1.2,1,1.6,1.7c0.4,0.7,0.6,1.5,0.6,2.2c0,0.5-0.1,1-0.2,1.6c-0.1,0.6-0.3,1.2-0.5,1.7
		c-0.2,0.6-0.4,1.1-0.6,1.7l-11.1,32.9c-0.4,1.3-0.8,2.5-1.2,3.6c-0.4,1.1-0.9,2.1-1.4,3c-0.5,0.9-1.2,1.6-2.1,2.1
		c-0.9,0.5-1.9,0.8-3.2,0.8s-2.3-0.3-3.2-0.8c-0.9-0.5-1.6-1.2-2.1-2.1c-0.5-0.9-1-1.9-1.4-3c-0.4-1.1-0.8-2.3-1.2-3.6l-10.9-32.7
		c-0.2-0.6-0.4-1.2-0.6-1.8c-0.2-0.6-0.4-1.2-0.5-1.9c-0.1-0.7-0.2-1.2-0.2-1.7c0-1.2,0.4-2.2,1.3-3.2c0.9-1,1.9-1.4,3.2-1.4
		c1.6,0,2.7,0.5,3.4,1.6C142,85.4,142.7,87.1,143.4,89.4z"/>
	<path class="st13" d="M210.8,91.4h-20.9v12.4h19.2c1.4,0,2.5,0.3,3.2,1c0.7,0.7,1,1.6,1,2.8s-0.3,2.1-1,2.8
		c-0.7,0.7-1.8,1.1-3.2,1.1h-19.2v14.3h21.6c1.5,0,2.6,0.4,3.3,1.1c0.7,0.7,1.1,1.7,1.1,3c0,1.2-0.4,2.2-1.1,2.9
		c-0.7,0.7-1.8,1.1-3.3,1.1h-25.2c-2,0-3.5-0.5-4.4-1.5c-0.9-1-1.3-2.6-1.3-4.8V89.8c0-1.5,0.2-2.7,0.6-3.6c0.4-0.9,1-1.6,1.9-2
		s1.9-0.6,3.2-0.6h24.5c1.5,0,2.6,0.4,3.3,1.1c0.7,0.7,1.1,1.7,1.1,2.8c0,1.2-0.4,2.1-1.1,2.9C213.4,91.1,212.3,91.4,210.8,91.4z"/>
	<path class="st13" d="M235.4,88.8l17.8,29.7v-30c0-1.9,0.4-3.4,1.1-4.4c0.8-1,1.8-1.5,3.1-1.5c1.3,0,2.4,0.5,3.2,1.5
		c0.8,1,1.2,2.4,1.2,4.4v39.6c0,4.4-1.7,6.6-5,6.6c-0.8,0-1.6-0.1-2.2-0.4c-0.7-0.3-1.3-0.7-1.9-1.3c-0.6-0.6-1.1-1.2-1.6-2
		c-0.5-0.8-1-1.6-1.5-2.4l-17.4-29.4V129c0,1.9-0.4,3.4-1.2,4.4c-0.8,1-1.9,1.5-3.1,1.5c-1.3,0-2.4-0.5-3.2-1.5
		c-0.8-1-1.2-2.4-1.2-4.3V90.1c0-1.7,0.2-2.9,0.5-3.9c0.4-1,1.1-1.9,2-2.5c0.9-0.7,1.9-1,3-1c0.8,0,1.5,0.1,2.1,0.4
		c0.6,0.3,1.1,0.7,1.6,1.2c0.4,0.5,0.9,1.2,1.4,2S234.9,88,235.4,88.8z"/>
	<path class="st13" d="M277.7,83.6h12.1c3.1,0,5.8,0.3,8.1,1c2.2,0.6,4.3,1.8,6.1,3.6c4.8,4.5,7.2,11.3,7.2,20.5
		c0,3-0.2,5.8-0.7,8.3c-0.5,2.5-1.2,4.7-2.2,6.8c-1,2-2.3,3.8-3.8,5.4c-1.2,1.2-2.6,2.2-4,2.9c-1.5,0.7-3,1.2-4.7,1.5
		c-1.7,0.3-3.6,0.4-5.7,0.4h-12.1c-1.7,0-3-0.3-3.8-0.8c-0.9-0.6-1.4-1.4-1.7-2.4c-0.3-1-0.4-2.3-0.4-4v-37c0-2.2,0.4-3.8,1.3-4.8
		C274.2,84.1,275.7,83.6,277.7,83.6z M281.3,91.7v34.2h7c1.5,0,2.8,0,3.6-0.1s1.8-0.3,2.7-0.7c0.9-0.4,1.8-0.9,2.4-1.5
		c3.1-2.9,4.7-7.9,4.7-14.9c0-5-0.7-8.7-2-11.2c-1.4-2.5-3-4-5-4.7c-2-0.7-4.4-1-7.2-1H281.3z"/>
	<path class="st13" d="M331.8,112.4h-3.2v16.2c0,2.1-0.4,3.7-1.3,4.7c-0.9,1-2,1.5-3.3,1.5c-1.5,0-2.6-0.5-3.4-1.6s-1.2-2.6-1.2-4.6
		V89.8c0-2.2,0.4-3.8,1.3-4.8c0.9-1,2.3-1.5,4.3-1.5H340c2.1,0,3.9,0.1,5.3,0.3c1.5,0.2,2.8,0.6,4,1.2c1.4,0.7,2.7,1.6,3.8,2.9
		c1.1,1.2,1.9,2.7,2.5,4.3c0.6,1.6,0.9,3.4,0.9,5.2c0,3.8-1,6.8-2.9,9c-1.9,2.2-4.8,3.8-8.8,4.8c1.6,1,3.2,2.4,4.7,4.3
		c1.5,1.9,2.8,3.9,4,6c1.2,2.1,2.1,4,2.8,5.7c0.7,1.7,1,2.9,1,3.5c0,0.7-0.2,1.3-0.6,2c-0.4,0.7-0.9,1.2-1.6,1.5
		c-0.7,0.4-1.4,0.6-2.3,0.6c-1,0-1.9-0.3-2.6-0.8c-0.7-0.5-1.3-1.2-1.8-2c-0.5-0.8-1.2-2-2.1-3.6l-3.7-6.8c-1.3-2.5-2.5-4.4-3.6-5.7
		c-1.1-1.3-2.1-2.2-3.2-2.7C334.8,112.7,333.4,112.4,331.8,112.4z M337.1,91.2h-8.6v13.9h8.3c2.2,0,4.1-0.2,5.6-0.6
		c1.5-0.4,2.7-1.1,3.5-2.2c0.8-1,1.2-2.4,1.2-4.2c0-1.4-0.3-2.6-1-3.7c-0.6-1.1-1.5-1.9-2.7-2.4C342.4,91.5,340.3,91.2,337.1,91.2z"
		/>
	<path class="st13" d="M395.5,91.4h-20.9v12.4h19.2c1.4,0,2.5,0.3,3.2,1c0.7,0.7,1,1.6,1,2.8s-0.3,2.1-1,2.8
		c-0.7,0.7-1.8,1.1-3.2,1.1h-19.2v14.3h21.6c1.5,0,2.6,0.4,3.3,1.1c0.7,0.7,1.1,1.7,1.1,3c0,1.2-0.4,2.2-1.1,2.9
		c-0.7,0.7-1.8,1.1-3.3,1.1H371c-2,0-3.5-0.5-4.4-1.5c-0.9-1-1.3-2.6-1.3-4.8V89.8c0-1.5,0.2-2.7,0.6-3.6c0.4-0.9,1-1.6,1.9-2
		s1.9-0.6,3.2-0.6h24.5c1.5,0,2.6,0.4,3.3,1.1c0.7,0.7,1.1,1.7,1.1,2.8c0,1.2-0.4,2.1-1.1,2.9S397,91.4,395.5,91.4z"/>
</g>
</svg>
