<?xml version="1.0" encoding="utf-8"?>
<!-- Generator: Adobe Illustrator 25.2.3, SVG Export Plug-In . SVG Version: 6.00 Build 0)  -->
<svg version="1.1" id="Calque_1" xmlns="http://www.w3.org/2000/svg" xmlns:xlink="http://www.w3.org/1999/xlink" x="0px" y="0px"
	 viewBox="0 0 46 46" style="enable-background:new 0 0 46 46;" xml:space="preserve">
<style type="text/css">
	.st0{fill:#377DFF;}
	.st1{fill:#477FF6;}
</style>
<g>
	<path class="st0" d="M39.1,18.8c-0.6-3.9-4-6.8-8-6.8c-1.5,0-3,0.4-4.2,1.2C24.9,10,21.5,8,17.6,8C11.7,8,6.8,12.8,6.8,18.7
		c0,0,0,0.1,0,0.1c-3.8,0.6-6.8,4-6.8,8c0,4.5,3.7,8.1,8.2,8.1H15c0-0.1,0-0.1,0-0.2v-6.1h-0.3c0,0,0,0-0.1,0
		c-0.5,0-0.9-0.2-1.2-0.5c-0.7-0.7-0.7-1.9,0-2.6l0,0l8.3-8.3c0.4-0.4,0.8-0.5,1.3-0.5s1,0.2,1.3,0.5l8.3,8.3l0,0
		c0.7,0.7,0.7,1.9,0,2.6c-0.3,0.4-0.8,0.5-1.3,0.5H31v6.1c0,0.1,0,0.1,0,0.2h6.8c4.5,0,8.2-3.6,8.2-8.1C46,22.8,42.9,19.4,39.1,18.8
		z"/>
	<path class="st1" d="M24,30.6H22c-0.5,0-1,0.5-1,1v3.4H25v-3.4C25,31,24.5,30.6,24,30.6z"/>
</g>
</svg>
