<?xml version="1.0" encoding="utf-8"?>
<!-- Generator: Adobe Illustrator 25.0.0, SVG Export Plug-In . SVG Version: 6.00 Build 0)  -->
<svg version="1.1" id="Calque_1" xmlns="http://www.w3.org/2000/svg" xmlns:xlink="http://www.w3.org/1999/xlink" x="0px" y="0px"
	 viewBox="0 0 179.4 46.1" style="enable-background:new 0 0 179.4 46.1;" xml:space="preserve">
<style type="text/css">
	.st0{display:none;}
	.st1{display:inline;fill:#377DFF;}
	.st2{display:inline;opacity:0.65;fill:#3F7DE0;enable-background:new    ;}
	.st3{display:inline;opacity:0.5;fill:#00DFFC;enable-background:new    ;}
	.st4{display:inline;opacity:0.7;fill:#3F7DE0;enable-background:new    ;}
	.st5{display:inline;fill:#FFFFFF;}
	.st6{enable-background:new    ;}
	.st7{fill:#28323D;}
	.st8{fill:#477FF6;}
</style>
<g id="Layer_1" class="st0">
	<path class="st1" d="M58.9,38.2V10h17.9v5.2H65.6v6.1H74v5.2h-8.4v11.7H58.9z"/>
	<path class="st1" d="M86.2,15.8V20c1.6-2.9,3.7-4.4,6.3-4.4v7h-1.6c-1.5,0-2.7,0.4-3.5,1.1c-0.8,0.8-1.2,2.1-1.2,3.9v10.6h-6.7
		V15.8H86.2z"/>
	<path class="st1" d="M95.9,35.3c-2.2-2.1-3.3-4.9-3.3-8.4s1.1-6.2,3.3-8.3c2.2-2.1,4.9-3.1,8.1-3.1s5.9,1,8.1,3.1s3.3,4.8,3.3,8.3
		s-1.1,6.2-3.3,8.4s-4.9,3.2-8.1,3.2S98.1,37.4,95.9,35.3z M107.3,31.2c0.9-1,1.3-2.4,1.3-4.2s-0.5-3.2-1.4-4.2s-2-1.4-3.3-1.4
		s-2.3,0.5-3.2,1.4c-0.9,1-1.4,2.3-1.4,4.2s0.5,3.2,1.4,4.2s2,1.4,3.3,1.4S106.4,32.1,107.3,31.2z"/>
	<path class="st1" d="M124.5,15.8v3.3c1.4-2.4,3.6-3.5,6.6-3.5c2.5,0,4.5,0.9,6.1,2.6s2.3,4,2.3,7v13.1h-6.7V26
		c0-1.4-0.4-2.6-1.1-3.4c-0.7-0.8-1.8-1.2-3.1-1.2s-2.3,0.4-3.1,1.2c-0.7,0.8-1.1,1.9-1.1,3.4v12.2h-6.7V15.8H124.5z"/>
	<path class="st1" d="M152.5,32.4h2.4v5.8h-3.4c-2.5,0-4.4-0.6-5.7-1.7c-1.3-1.1-2-3-2-5.7v-9.3h-2v-5.7h2v-5.5h6.7v5.5h4.4v5.7
		h-4.4v9.3C150.5,31.8,151.2,32.4,152.5,32.4z"/>
	<path class="st2" d="M23,41.1L23,41.1c-9.9,0-18-8-18-18l0,0c0-9.9,8-18,18-18h11.3c3.7,0,6.6,3,6.6,6.6v11.4
		C41,33,32.9,41.1,23,41.1z"/>
	<path class="st3" d="M28,36L28,36c-9.9,0-18-8-18-18l0,0c0-9.9,8-18,18-18h11.3C43,0.1,46,3.1,46,6.7v11.4C46,28,38,36,28,36z"/>
	<path class="st4" d="M18,46.1L18,46.1c-10,0-18-8-18-18l0,0c0-9.9,8-18,18-18h11.3c3.7,0,6.6,3,6.6,6.6v11.4
		C35.9,38.1,27.9,46.1,18,46.1z"/>
	<path class="st5" d="M17.4,34.1V18.4h10.2v2.9h-6.4v3.4H26v2.9h-4.8v6.5H17.4z"/>
</g>
<g id="Calque_2_1_">
	<g class="st6">
		<path class="st7" d="M67.7,38.6V15.9h13.9v2.7H70.9v6.8h9.5V28h-9.5v7.9h11.5v2.7H67.7z"/>
		<path class="st7" d="M91.7,21.1c1.2,0,2.3,0.2,3.1,0.5s1.5,0.8,2,1.3c0.5,0.6,0.9,1.3,1.1,2.1c0.2,0.8,0.3,1.7,0.3,2.6v10.7
			c-0.3,0-0.6,0.1-1.1,0.2c-0.5,0.1-1,0.1-1.6,0.2c-0.6,0.1-1.2,0.1-1.9,0.2s-1.4,0.1-2,0.1c-1,0-1.8-0.1-2.7-0.3
			c-0.8-0.2-1.5-0.5-2.1-0.9c-0.6-0.4-1-1-1.4-1.7c-0.3-0.7-0.5-1.5-0.5-2.5c0-0.9,0.2-1.7,0.6-2.4c0.4-0.7,0.9-1.2,1.6-1.6
			c0.7-0.4,1.4-0.7,2.3-0.9c0.9-0.2,1.8-0.3,2.8-0.3c0.3,0,0.6,0,1,0s0.6,0.1,0.9,0.1c0.3,0.1,0.6,0.1,0.8,0.1
			c0.2,0,0.4,0.1,0.5,0.1v-0.9c0-0.5-0.1-1-0.2-1.5s-0.3-0.9-0.6-1.3s-0.7-0.7-1.2-0.9c-0.5-0.2-1.1-0.3-1.9-0.3
			c-1,0-1.9,0.1-2.6,0.2c-0.8,0.1-1.3,0.3-1.7,0.4l-0.4-2.5c0.4-0.2,1-0.3,2-0.5C89.7,21.2,90.7,21.1,91.7,21.1z M92,36.4
			c0.7,0,1.4,0,1.9,0c0.6,0,1-0.1,1.4-0.2v-5.1c-0.2-0.1-0.6-0.2-1.1-0.3c-0.5-0.1-1.1-0.1-1.8-0.1c-0.5,0-0.9,0-1.5,0.1
			s-1,0.2-1.4,0.4c-0.4,0.2-0.8,0.5-1.1,0.9c-0.3,0.4-0.4,0.8-0.4,1.4c0,1.1,0.3,1.9,1,2.3C89.8,36.2,90.8,36.4,92,36.4z"/>
		<path class="st7" d="M107.3,36.4c1.2,0,2.2-0.2,2.8-0.5s0.9-0.9,0.9-1.6c0-0.7-0.3-1.3-0.9-1.8c-0.6-0.4-1.6-0.9-2.9-1.5
			c-0.7-0.3-1.3-0.5-1.9-0.8c-0.6-0.3-1.1-0.6-1.6-1c-0.4-0.4-0.8-0.8-1-1.3s-0.4-1.2-0.4-1.9c0-1.5,0.6-2.7,1.7-3.6
			c1.1-0.9,2.6-1.3,4.6-1.3c0.5,0,1,0,1.4,0.1c0.5,0.1,0.9,0.1,1.3,0.2c0.4,0.1,0.8,0.2,1.1,0.2c0.3,0.1,0.6,0.2,0.7,0.2l-0.6,2.6
			c-0.3-0.2-0.8-0.4-1.5-0.5c-0.7-0.2-1.5-0.3-2.5-0.3c-0.9,0-1.6,0.2-2.2,0.5s-1,0.9-1,1.6c0,0.4,0.1,0.7,0.2,1
			c0.1,0.3,0.4,0.5,0.7,0.8c0.3,0.2,0.7,0.4,1.1,0.6c0.4,0.2,1,0.4,1.6,0.6c0.8,0.3,1.5,0.6,2.2,0.9c0.6,0.3,1.2,0.6,1.6,1
			s0.8,0.9,1,1.4s0.4,1.2,0.4,2c0,1.6-0.6,2.8-1.8,3.6c-1.2,0.8-2.8,1.2-5,1.2c-1.5,0-2.7-0.1-3.5-0.4s-1.4-0.4-1.7-0.6l0.6-2.6
			c0.3,0.1,0.9,0.3,1.7,0.6C105,36.3,106,36.4,107.3,36.4z"/>
		<path class="st7" d="M116,41.8c0.2,0.1,0.6,0.2,0.9,0.3c0.4,0.1,0.8,0.1,1.1,0.1c1.2,0,2.1-0.3,2.8-0.8c0.7-0.5,1.3-1.4,1.8-2.6
			c-1.4-2.6-2.7-5.4-3.9-8.3c-1.2-2.9-2.2-5.9-3-8.9h3.3c0.2,1,0.5,2,0.9,3.2c0.3,1.1,0.7,2.3,1.1,3.5c0.4,1.2,0.9,2.4,1.3,3.6
			s1,2.4,1.5,3.5c0.8-2.3,1.6-4.6,2.2-6.8c0.6-2.3,1.2-4.6,1.7-7h3.1c-0.8,3.2-1.7,6.3-2.6,9.3c-1,3-2,5.7-3.1,8.3
			c-0.4,1-0.9,1.8-1.4,2.5c-0.5,0.7-1,1.3-1.6,1.8s-1.2,0.8-1.9,1c-0.7,0.2-1.5,0.3-2.4,0.3c-0.2,0-0.5,0-0.8,0
			c-0.3,0-0.5-0.1-0.8-0.1c-0.3-0.1-0.5-0.1-0.7-0.2c-0.2-0.1-0.4-0.1-0.4-0.2L116,41.8z"/>
		<path class="st7" d="M134.3,22c0.7-0.2,1.6-0.4,2.8-0.6c1.1-0.2,2.5-0.3,4-0.3c1.1,0,2,0.1,2.8,0.4c0.7,0.3,1.4,0.7,1.9,1.3
			c0.2-0.1,0.4-0.3,0.7-0.5c0.3-0.2,0.7-0.4,1.2-0.6c0.5-0.2,1-0.3,1.6-0.5c0.6-0.1,1.2-0.2,1.9-0.2c1.3,0,2.4,0.2,3.2,0.6
			s1.5,0.9,2,1.6c0.5,0.7,0.8,1.5,1,2.5c0.2,1,0.2,2,0.2,3.1v9.6h-3v-8.9c0-1,0-1.9-0.1-2.6s-0.3-1.3-0.6-1.8
			c-0.3-0.5-0.6-0.8-1.1-1.1c-0.5-0.2-1.1-0.3-1.8-0.3c-1,0-1.9,0.1-2.5,0.4c-0.7,0.3-1.1,0.5-1.4,0.7c0.2,0.6,0.3,1.2,0.4,1.9
			c0.1,0.7,0.1,1.4,0.1,2.1v9.6h-3v-8.9c0-1-0.1-1.9-0.2-2.6s-0.3-1.3-0.6-1.8c-0.3-0.5-0.6-0.8-1.1-1.1c-0.5-0.2-1.1-0.3-1.8-0.3
			c-0.3,0-0.6,0-1,0c-0.4,0-0.7,0-1,0.1c-0.3,0-0.6,0.1-0.9,0.1c-0.3,0-0.4,0.1-0.5,0.1v14.4h-3V22z"/>
		<path class="st7" d="M177.6,30.1c0,1.4-0.2,2.6-0.6,3.7c-0.4,1.1-0.9,2-1.7,2.8c-0.7,0.8-1.6,1.4-2.5,1.8c-1,0.4-2.1,0.6-3.2,0.6
			s-2.2-0.2-3.2-0.6c-1-0.4-1.8-1-2.5-1.8s-1.3-1.7-1.7-2.8c-0.4-1.1-0.6-2.3-0.6-3.7c0-1.3,0.2-2.6,0.6-3.7c0.4-1.1,0.9-2,1.7-2.8
			s1.6-1.4,2.5-1.8c1-0.4,2.1-0.6,3.2-0.6s2.2,0.2,3.2,0.6c1,0.4,1.8,1,2.5,1.8c0.7,0.8,1.3,1.7,1.7,2.8
			C177.4,27.5,177.6,28.7,177.6,30.1z M174.4,30.1c0-1.9-0.4-3.4-1.3-4.6c-0.9-1.1-2-1.7-3.5-1.7c-1.5,0-2.7,0.6-3.5,1.7
			c-0.9,1.1-1.3,2.7-1.3,4.6c0,1.9,0.4,3.4,1.3,4.6c0.9,1.1,2,1.7,3.5,1.7c1.5,0,2.7-0.6,3.5-1.7C173.9,33.5,174.4,32,174.4,30.1z"
			/>
	</g>
	<g>
		<path class="st8" d="M50.8,17.7c-0.8-5-5.2-8.9-10.4-8.9c-2,0-3.9,0.6-5.5,1.6c-2.5-4.2-7-6.8-12-6.8c-7.7,0-14,6.3-14,14
			c0,0,0,0.1,0,0.1C3.9,18.5,0,22.9,0,28.1c0,5.8,4.8,10.5,10.6,10.5h8.9c0-0.1,0-0.1,0-0.2v-7.9h-0.4c0,0,0,0-0.1,0
			c-0.6,0-1.2-0.3-1.6-0.7c-1-1-1-2.5,0-3.4l0,0l10.8-10.8c0.5-0.5,1.1-0.7,1.7-0.7s1.3,0.2,1.7,0.7l10.8,10.8l0,0c1,1,1,2.5,0,3.4
			c-0.5,0.5-1.1,0.7-1.7,0.7h-0.4v7.9c0,0.1,0,0.2,0,0.2h8.9c5.8,0,10.6-4.7,10.6-10.5C59.8,22.8,55.9,18.5,50.8,17.7z"/>
		<path class="st8" d="M31.2,32.9h-2.5c-0.7,0-1.3,0.6-1.3,1.3v4.4h5.1v-4.4C32.5,33.5,31.9,32.9,31.2,32.9z"/>
	</g>
</g>
</svg>
